Neuton-SC-Light.ufo
<glyph name="exclam" format="1">
  <advance width="330"/>
  <unicode hex="0021"/>
  <outline>
    <contour>
      <point x="72.5" y="79" type="curve" smooth="yes"/>
      <point x="72.5" y="139.5"/>
      <point x="112.5" y="184.5"/>
      <point x="162.5" y="184.5" type="curve" smooth="yes"/>
      <point x="214" y="184.5"/>
      <point x="255" y="138.5"/>
      <point x="255" y="78" type="curve" smooth="yes"/>
      <point x="255" y="14"/>
      <point x="220.5" y="-34.5"/>
      <point x="163" y="-34.5" type="curve" smooth="yes"/>
      <point x="107" y="-34.5"/>
      <point x="72.5" y="17"/>
    </contour>
    <contour>
      <point x="88.5" y="1249" type="curve" smooth="yes"/>
      <point x="88.5" y="1281"/>
      <point x="149" y="1293"/>
      <point x="188.5" y="1293" type="curve" smooth="yes"/>
      <point x="215.5" y="1293"/>
      <point x="247" y="1284"/>
      <point x="247" y="1253" type="curve" smooth="yes"/>
      <point x="247" y="1084"/>
      <point x="220.5" y="679"/>
      <point x="195" y="358.5" type="curve"/>
      <point x="129.5" y="372.5" type="line"/>
      <point x="114.5" y="678.5"/>
      <point x="88.5" y="1106.5"/>
    </contour>
  </outline>
</glyph>
<glyph name="quotedbl" format="1">
  <advance width="446"/>
  <unicode hex="0022"/>
  <outline>
    <contour>
      <point x="55.5" y="1302" type="line"/>
      <point x="201.5" y="1291" type="line"/>
      <point x="165.5" y="899" type="line"/>
      <point x="93" y="891.5" type="line"/>
    </contour>
    <contour>
      <point x="242" y="1302" type="line"/>
      <point x="389" y="1291" type="line"/>
      <point x="353" y="899" type="line"/>
      <point x="279" y="891.5" type="line"/>
    </contour>
  </outline>
</glyph>
<glyph name="numbersign" format="1">
  <advance width="962"/>
  <unicode hex="0023"/>
  <outline>
    <contour>
      <point x="14" y="244.5" type="line"/>
      <point x="41" y="345.5" type="line"/>
      <point x="794" y="345.5" type="line"/>
      <point x="768" y="244.5" type="line"/>
    </contour>
    <contour>
      <point x="69" y="558.5" type="line"/>
      <point x="97" y="659.5" type="line"/>
      <point x="852.5" y="659.5" type="line"/>
      <point x="827.5" y="558.5" type="line"/>
    </contour>
    <contour>
      <point x="184" y="-26" type="line"/>
      <point x="329.5" y="933" type="line"/>
      <point x="419" y="943" type="line"/>
      <point x="273.5" y="-19" type="line"/>
    </contour>
    <contour>
      <point x="453.5" y="-26" type="line"/>
      <point x="599" y="933" type="line"/>
      <point x="688.5" y="942" type="line"/>
      <point x="543" y="-19" type="line"/>
    </contour>
  </outline>
</glyph>
<glyph name="ampersand" format="1">
  <advance width="1127"/>
  <unicode hex="0026"/>
  <outline>
    <contour>
      <point x="98.5" y="181" type="curve" smooth="yes"/>
      <point x="98.5" y="453.5"/>
      <point x="552.5" y="481"/>
      <point x="552.5" y="723" type="curve" smooth="yes"/>
      <point x="552.5" y="813.5"/>
      <point x="503" y="872"/>
      <point x="428" y="872" type="curve" smooth="yes"/>
      <point x="368.5" y="872"/>
      <point x="323" y="822"/>
      <point x="323" y="755" type="curve" smooth="yes"/>
      <point x="323" y="681.5"/>
      <point x="369" y="616.5"/>
      <point x="452.5" y="519.5" type="curve" smooth="yes"/>
      <point x="686.5" y="262.5" type="line" smooth="yes"/>
      <point x="813.5" y="123.5"/>
      <point x="884" y="86.5"/>
      <point x="961.5" y="64" type="curve" smooth="yes"/>
      <point x="1001.5" y="52.5" type="line"/>
      <point x="991.5" y="-0.5" type="line"/>
      <point x="951.5" y="-14.5"/>
      <point x="924.5" y="-19"/>
      <point x="884.5" y="-19" type="curve" smooth="yes"/>
      <point x="798.5" y="-19"/>
      <point x="707" y="34"/>
      <point x="629.5" y="120" type="curve" smooth="yes"/>
      <point x="309.5" y="476.5" type="line" smooth="yes"/>
      <point x="253.5" y="542.5"/>
      <point x="198" y="624.5"/>
      <point x="198" y="708" type="curve" smooth="yes"/>
      <point x="198" y="825"/>
      <point x="313.5" y="940.5"/>
      <point x="447.5" y="940.5" type="curve" smooth="yes"/>
      <point x="588" y="940.5"/>
      <point x="672.5" y="858"/>
      <point x="672.5" y="752.5" type="curve" smooth="yes"/>
      <point x="672.5" y="473.5"/>
      <point x="249.5" y="476"/>
      <point x="249.5" y="216" type="curve" smooth="yes"/>
      <point x="249.5" y="136"/>
      <point x="308.5" y="73"/>
      <point x="394.5" y="73" type="curve" smooth="yes"/>
      <point x="534.5" y="73"/>
      <point x="654" y="185"/>
      <point x="780.5" y="458.5" type="curve"/>
      <point x="661.5" y="494.5" type="line"/>
      <point x="668" y="545" type="line"/>
      <point x="1025.5" y="545" type="line"/>
      <point x="1018.5" y="494.5" type="line"/>
      <point x="873" y="461.5" type="line"/>
      <point x="714.5" y="171"/>
      <point x="604" y="-19.5"/>
      <point x="343.5" y="-19.5" type="curve" smooth="yes"/>
      <point x="178" y="-19.5"/>
      <point x="98.5" y="75"/>
    </contour>
  </outline>
</glyph>
<glyph name="quotesingle" format="1">
  <advance width="259"/>
  <unicode hex="0027"/>
  <outline>
    <contour>
      <point x="55.5" y="1302" type="line"/>
      <point x="201.5" y="1291" type="line"/>
      <point x="165.5" y="899" type="line"/>
      <point x="93" y="891.5" type="line"/>
    </contour>
  </outline>
</glyph>
<glyph name="asterisk" format="1">
  <advance width="802"/>
  <unicode hex="002A"/>
  <outline>
    <contour>
      <point x="45" y="977" type="line"/>
      <point x="93.5" y="1092" type="line"/>
      <point x="369" y="973.5" type="line"/>
      <point x="336.5" y="1290.5" type="line"/>
      <point x="459" y="1279.5" type="line"/>
      <point x="433.5" y="980.5" type="line"/>
      <point x="724.5" y="1108" type="line"/>
      <point x="751.5" y="989.5" type="line"/>
      <point x="459" y="922" type="line"/>
      <point x="672" y="686" type="line"/>
      <point x="567" y="623" type="line"/>
      <point x="412" y="881.5" type="line"/>
      <point x="250" y="604.5" type="line"/>
      <point x="157.5" y="684.5" type="line"/>
      <point x="356" y="911.5" type="line"/>
    </contour>
  </outline>
</glyph>
<glyph name="plus" format="1">
  <advance width="630"/>
  <unicode hex="002B"/>
  <outline>
    <contour>
      <point x="50.5" y="417.5" type="line"/>
      <point x="63" y="502.5" type="line"/>
      <point x="271.5" y="502.5" type="line"/>
      <point x="271.5" y="741.5" type="line"/>
      <point x="359.5" y="729.5" type="line"/>
      <point x="361" y="502.5" type="line"/>
      <point x="581" y="502.5" type="line"/>
      <point x="569.5" y="417.5" type="line"/>
      <point x="361" y="417.5" type="line"/>
      <point x="362.5" y="173" type="line"/>
      <point x="271.5" y="186" type="line"/>
      <point x="271.5" y="417.5" type="line"/>
    </contour>
  </outline>
</glyph>
<glyph name="comma" format="1">
  <advance width="414"/>
  <unicode hex="002C"/>
  <outline>
    <contour>
      <point x="54" y="-240" type="line"/>
      <point x="191" y="-194.5"/>
      <point x="234" y="-123"/>
      <point x="234" y="-50" type="curve" smooth="yes"/>
      <point x="234" y="21.5"/>
      <point x="186" y="74"/>
      <point x="121.5" y="74" type="curve" smooth="yes"/>
      <point x="112" y="74"/>
      <point x="102.5" y="73.5"/>
      <point x="93" y="71" type="curve"/>
      <point x="87.5" y="86"/>
      <point x="84.5" y="96"/>
      <point x="84.5" y="112" type="curve" smooth="yes"/>
      <point x="84.5" y="179.5"/>
      <point x="140" y="218"/>
      <point x="193.5" y="218" type="curve" smooth="yes"/>
      <point x="266.5" y="218"/>
      <point x="352" y="154"/>
      <point x="352" y="9.5" type="curve" smooth="yes"/>
      <point x="352" y="-84"/>
      <point x="307.5" y="-229"/>
      <point x="71.5" y="-297" type="curve"/>
    </contour>
  </outline>
</glyph>
<glyph name="hyphen" format="1">
  <advance width="562"/>
  <unicode hex="002D"/>
  <outline>
    <contour>
      <point x="73.5" y="408.5" type="line"/>
      <point x="84" y="489" type="line"/>
      <point x="491" y="507" type="line"/>
      <point x="481" y="426" type="line"/>
    </contour>
  </outline>
</glyph>
<glyph name="period" format="1">
  <advance width="319"/>
  <unicode hex="002E"/>
  <outline>
    <contour>
      <point x="69.5" y="81" type="curve" smooth="yes"/>
      <point x="69.5" y="144.5"/>
      <point x="106.5" y="186"/>
      <point x="160" y="186" type="curve" smooth="yes"/>
      <point x="214.5" y="186"/>
      <point x="252.5" y="144"/>
      <point x="252.5" y="80" type="curve" smooth="yes"/>
      <point x="252.5" y="13.5"/>
      <point x="216" y="-32"/>
      <point x="160" y="-32" type="curve" smooth="yes"/>
      <point x="104" y="-32"/>
      <point x="69.5" y="15.5"/>
    </contour>
  </outline>
</glyph>
<glyph name="slash" format="1">
  <advance width="651"/>
  <unicode hex="002F"/>
  <outline>
    <contour>
      <point x="42" y="-360.5" type="line"/>
      <point x="504" y="1238" type="line"/>
      <point x="611" y="1244" type="line"/>
      <point x="145.5" y="-354.5" type="line"/>
    </contour>
  </outline>
</glyph>
<glyph name="two" format="1">
  <advance width="795"/>
  <unicode hex="0032"/>
  <outline>
    <contour>
      <point x="43" y="74" type="line"/>
      <point x="278.5" y="251.5" type="line"/>
      <point x="470" y="394"/>
      <point x="536.5" y="514"/>
      <point x="536.5" y="653" type="curve" smooth="yes"/>
      <point x="536.5" y="787"/>
      <point x="470" y="882"/>
      <point x="355.5" y="882" type="curve" smooth="yes"/>
      <point x="258" y="882"/>
      <point x="167.5" y="780"/>
      <point x="136" y="662" type="curve"/>
      <point x="70.5" y="686" type="line"/>
      <point x="94.5" y="813.5"/>
      <point x="235" y="978"/>
      <point x="416" y="980" type="curve" smooth="yes"/>
      <point x="596.5" y="981.5"/>
      <point x="700" y="862.5"/>
      <point x="700" y="692" type="curve" smooth="yes"/>
      <point x="700" y="497"/>
      <point x="557.5" y="354"/>
      <point x="299.5" y="175" type="curve"/>
      <point x="213.5" y="116" type="line"/>
      <point x="625" y="116" type="line"/>
      <point x="703.5" y="295.5" type="line"/>
      <point x="758.5" y="286.5" type="line"/>
      <point x="717" y="0" type="line"/>
      <point x="50" y="0" type="line"/>
    </contour>
  </outline>
</glyph>
<glyph name="four" format="1">
  <advance width="947"/>
  <unicode hex="0034"/>
  <outline>
    <contour>
      <point x="16.5" y="159" type="line"/>
      <point x="631" y="977.5" type="line"/>
      <point x="680.5" y="963" type="line"/>
      <point x="674" y="844.5"/>
      <point x="670" y="635.5"/>
      <point x="670" y="454" type="curve" smooth="yes"/>
      <point x="670" y="205.5" type="line"/>
      <point x="899.5" y="205.5" type="line"/>
      <point x="883.5" y="105.5" type="line"/>
      <point x="671" y="105.5" type="line"/>
      <point x="671" y="-269" type="line"/>
      <point x="531" y="-300.5" type="line"/>
      <point x="531" y="108" type="line"/>
      <point x="35.5" y="108" type="line"/>
    </contour>
    <contour>
      <point x="163.5" y="205.5" type="line"/>
      <point x="528.5" y="205.5" type="line"/>
      <point x="528.5" y="713.5" type="line"/>
    </contour>
  </outline>
</glyph>
<glyph name="six" format="1">
  <advance width="785"/>
  <unicode hex="0036"/>
  <outline>
    <contour>
      <point x="46.5" y="421.5" type="curve" smooth="yes"/>
      <point x="46.5" y="738.5"/>
      <point x="289" y="1108"/>
      <point x="617" y="1217.5" type="curve"/>
      <point x="645" y="1166.5" type="line"/>
      <point x="377.5" y="1051.5"/>
      <point x="258.5" y="812.5"/>
      <point x="218.5" y="613.5" type="curve"/>
      <point x="227.5" y="613.5" type="line"/>
      <point x="286.5" y="670.5"/>
      <point x="373.5" y="711"/>
      <point x="460.5" y="711" type="curve" smooth="yes"/>
      <point x="640.5" y="711"/>
      <point x="741" y="556"/>
      <point x="741" y="371.5" type="curve" smooth="yes"/>
      <point x="741" y="163.5"/>
      <point x="578.5" y="-21.5"/>
      <point x="384" y="-21.5" type="curve" smooth="yes"/>
      <point x="128.5" y="-21.5"/>
      <point x="46.5" y="188"/>
    </contour>
    <contour>
      <point x="204.5" y="407" type="curve" smooth="yes"/>
      <point x="204.5" y="199"/>
      <point x="285" y="48.5"/>
      <point x="405" y="48.5" type="curve" smooth="yes"/>
      <point x="528" y="48.5"/>
      <point x="588.5" y="176.5"/>
      <point x="588.5" y="327.5" type="curve" smooth="yes"/>
      <point x="588.5" y="482"/>
      <point x="534.5" y="619"/>
      <point x="383.5" y="619" type="curve" smooth="yes"/>
      <point x="309" y="619"/>
      <point x="245.5" y="578.5"/>
      <point x="215" y="543.5" type="curve"/>
      <point x="210" y="509"/>
      <point x="204.5" y="442"/>
    </contour>
  </outline>
</glyph>
<glyph name="eight" format="1">
  <advance width="790"/>
  <unicode hex="0038"/>
  <outline>
    <contour>
      <point x="52.5" y="280.5" type="curve" smooth="yes"/>
      <point x="52.5" y="396.5"/>
      <point x="126" y="508"/>
      <point x="264" y="605" type="curve"/>
      <point x="264" y="612" type="line"/>
      <point x="170.5" y="675.5"/>
      <point x="98" y="778"/>
      <point x="98" y="900.5" type="curve" smooth="yes"/>
      <point x="98" y="1064"/>
      <point x="225.5" y="1201.5"/>
      <point x="409.5" y="1201.5" type="curve" smooth="yes"/>
      <point x="578.5" y="1201.5"/>
      <point x="688" y="1092"/>
      <point x="688" y="933" type="curve" smooth="yes"/>
      <point x="688" y="800.5"/>
      <point x="620.5" y="700"/>
      <point x="521.5" y="624.5" type="curve"/>
      <point x="521" y="618.5" type="line"/>
      <point x="668.5" y="522"/>
      <point x="740.5" y="419"/>
      <point x="740.5" y="294.5" type="curve" smooth="yes"/>
      <point x="740.5" y="111"/>
      <point x="570" y="-27"/>
      <point x="361" y="-27" type="curve" smooth="yes"/>
      <point x="177" y="-27"/>
      <point x="52.5" y="99"/>
    </contour>
    <contour>
      <point x="185.5" y="311.5" type="curve" smooth="yes"/>
      <point x="185.5" y="161"/>
      <point x="304" y="49.5"/>
      <point x="407.5" y="49.5" type="curve" smooth="yes"/>
      <point x="538.5" y="49.5"/>
      <point x="618.5" y="125"/>
      <point x="618.5" y="248" type="curve" smooth="yes"/>
      <point x="618.5" y="362"/>
      <point x="524" y="443.5"/>
      <point x="313" y="575.5" type="curve"/>
      <point x="242.5" y="521.5"/>
      <point x="185.5" y="430.5"/>
    </contour>
    <contour>
      <point x="210" y="976" type="curve" smooth="yes"/>
      <point x="210" y="853"/>
      <point x="289.5" y="760"/>
      <point x="467" y="652" type="curve"/>
      <point x="516" y="699.5"/>
      <point x="574.5" y="767.5"/>
      <point x="574.5" y="898.5" type="curve" smooth="yes"/>
      <point x="574.5" y="1026.5"/>
      <point x="492.5" y="1139.5"/>
      <point x="376.5" y="1139.5" type="curve" smooth="yes"/>
      <point x="280.5" y="1139.5"/>
      <point x="210" y="1068.5"/>
    </contour>
  </outline>
</glyph>
<glyph name="less" format="1">
  <advance width="729"/>
  <unicode hex="003C"/>
  <outline>
    <contour>
      <point x="735" y="-25" type="line"/>
      <point x="245" y="439" type="line"/>
      <point x="715.5" y="913" type="line"/>
      <point x="679.5" y="973" type="line"/>
      <point x="60" y="464" type="line"/>
      <point x="58.5" y="420.5" type="line"/>
      <point x="692.5" y="-82.5" type="line"/>
    </contour>
  </outline>
</glyph>
<glyph name="equal" format="1">
  <advance width="782"/>
  <unicode hex="003D"/>
  <outline>
    <contour>
      <point x="77" y="329.5" type="line"/>
      <point x="88" y="414.5" type="line"/>
      <point x="703" y="414.5" type="line"/>
      <point x="692" y="329.5" type="line"/>
    </contour>
    <contour>
      <point x="80" y="569.5" type="line"/>
      <point x="91.5" y="654" type="line"/>
      <point x="706" y="654" type="line"/>
      <point x="694.5" y="569.5" type="line"/>
    </contour>
  </outline>
</glyph>
<glyph name="greater" format="1">
  <advance width="737"/>
  <unicode hex="003E"/>
  <outline>
    <contour>
      <point x="51.5" y="-25" type="line"/>
      <point x="541.5" y="439" type="line"/>
      <point x="71" y="913" type="line"/>
      <point x="107" y="973" type="line"/>
      <point x="726.5" y="464" type="line"/>
      <point x="728" y="420.5" type="line"/>
      <point x="94" y="-82.5" type="line"/>
    </contour>
  </outline>
</glyph>
<glyph name="question" format="1">
  <advance width="624"/>
  <unicode hex="003F"/>
  <outline>
    <contour>
      <point x="45.5" y="1159" type="curve" smooth="yes"/>
      <point x="45.5" y="1217.5"/>
      <point x="119.5" y="1286.5"/>
      <point x="243" y="1286.5" type="curve" smooth="yes"/>
      <point x="409.5" y="1286.5"/>
      <point x="573" y="1109"/>
      <point x="573" y="892.5" type="curve" smooth="yes"/>
      <point x="573" y="660.5"/>
      <point x="274" y="669.5"/>
      <point x="274" y="508" type="curve" smooth="yes"/>
      <point x="274" y="468"/>
      <point x="287.5" y="419"/>
      <point x="308" y="370.5" type="curve"/>
      <point x="251" y="354" type="line"/>
      <point x="215" y="395.5"/>
      <point x="169.5" y="483.5"/>
      <point x="169.5" y="564.5" type="curve" smooth="yes"/>
      <point x="169.5" y="785"/>
      <point x="478.5" y="765"/>
      <point x="478.5" y="942.5" type="curve" smooth="yes"/>
      <point x="478.5" y="1047"/>
      <point x="392" y="1147.5"/>
      <point x="296" y="1147.5" type="curve" smooth="yes"/>
      <point x="220" y="1147.5"/>
      <point x="148" y="1119"/>
      <point x="105" y="1073" type="curve"/>
      <point x="75" y="1086.5"/>
      <point x="45.5" y="1119"/>
    </contour>
    <contour>
      <point x="197" y="79" type="curve" smooth="yes"/>
      <point x="197" y="139.5"/>
      <point x="237" y="184.5"/>
      <point x="287" y="184.5" type="curve" smooth="yes"/>
      <point x="338.5" y="184.5"/>
      <point x="378.5" y="138.5"/>
      <point x="378.5" y="78" type="curve" smooth="yes"/>
      <point x="378.5" y="14"/>
      <point x="344.5" y="-34.5"/>
      <point x="287" y="-34.5" type="curve" smooth="yes"/>
      <point x="231" y="-34.5"/>
      <point x="197" y="17"/>
    </contour>
  </outline>
</glyph>
<glyph name="at" format="1">
  <advance width="1329"/>
  <unicode hex="0040"/>
  <outline>
    <contour>
      <point x="55" y="329" type="curve" smooth="yes"/>
      <point x="55" y="707"/>
      <point x="331.5" y="1044"/>
      <point x="756" y="1044" type="curve" smooth="yes"/>
      <point x="1036.5" y="1044"/>
      <point x="1271.5" y="855"/>
      <point x="1271.5" y="581" type="curve" smooth="yes"/>
      <point x="1271.5" y="310.5"/>
      <point x="1074" y="69.5"/>
      <point x="800" y="69.5" type="curve" smooth="yes"/>
      <point x="736.5" y="69.5"/>
      <point x="726.5" y="124"/>
      <point x="729.5" y="187.5" type="curve"/>
      <point x="720" y="187.5" type="line"/>
      <point x="680" y="128"/>
      <point x="596.5" y="59.5"/>
      <point x="520.5" y="59.5" type="curve" smooth="yes"/>
      <point x="421.5" y="59.5"/>
      <point x="356.5" y="154"/>
      <point x="356.5" y="325.5" type="curve" smooth="yes"/>
      <point x="356.5" y="610"/>
      <point x="569" y="789.5"/>
      <point x="737.5" y="789.5" type="curve" smooth="yes"/>
      <point x="790.5" y="789.5"/>
      <point x="832.5" y="785.5"/>
      <point x="890" y="772.5" type="curve"/>
      <point x="907" y="751.5" type="line"/>
      <point x="865.5" y="385" type="line" smooth="yes"/>
      <point x="850.5" y="253.5"/>
      <point x="829" y="152"/>
      <point x="877" y="152" type="curve" smooth="yes"/>
      <point x="1029.5" y="152"/>
      <point x="1163" y="313"/>
      <point x="1163" y="544.5" type="curve" smooth="yes"/>
      <point x="1163" y="811"/>
      <point x="955" y="971.5"/>
      <point x="719" y="971.5" type="curve" smooth="yes"/>
      <point x="398.5" y="971.5"/>
      <point x="177.5" y="693"/>
      <point x="177.5" y="354.5" type="curve" smooth="yes"/>
      <point x="177.5" y="51"/>
      <point x="368.5" y="-149"/>
      <point x="696" y="-149" type="curve" smooth="yes"/>
      <point x="846" y="-149"/>
      <point x="1009" y="-71"/>
      <point x="1055.5" y="-31" type="curve"/>
      <point x="1084" y="-82.5" type="line"/>
      <point x="996" y="-141"/>
      <point x="877.5" y="-227.5"/>
      <point x="659.5" y="-227.5" type="curve" smooth="yes"/>
      <point x="355" y="-227.5"/>
      <point x="55" y="-54.5"/>
    </contour>
    <contour>
      <point x="479" y="368.5" type="curve" smooth="yes"/>
      <point x="479" y="217.5"/>
      <point x="513" y="159.5"/>
      <point x="563.5" y="159.5" type="curve" smooth="yes"/>
      <point x="616.5" y="159.5"/>
      <point x="696" y="208.5"/>
      <point x="731" y="248.5" type="curve"/>
      <point x="785" y="703" type="line"/>
      <point x="762" y="709.5"/>
      <point x="714.5" y="714"/>
      <point x="683.5" y="714" type="curve" smooth="yes"/>
      <point x="563" y="714"/>
      <point x="479" y="549.5"/>
    </contour>
  </outline>
</glyph>
<glyph name="A" format="1">
  <advance width="1326"/>
  <unicode hex="0041"/>
  <outline>
    <contour>
      <point x="46" y="0" type="line"/>
      <point x="54" y="58" type="line"/>
      <point x="199" y="101" type="line"/>
      <point x="637" y="1246" type="line"/>
      <point x="739" y="1268" type="line"/>
      <point x="1141" y="95" type="line"/>
      <point x="1276" y="64" type="line"/>
      <point x="1268" y="0" type="line"/>
      <point x="806" y="0" type="line"/>
      <point x="816" y="58" type="line"/>
      <point x="985" y="101" type="line"/>
      <point x="861" y="455" type="line"/>
      <point x="436" y="455" type="line"/>
      <point x="305" y="95" type="line"/>
      <point x="490" y="63" type="line"/>
      <point x="480" y="0" type="line"/>
    </contour>
    <contour>
      <point x="464" y="534" type="line"/>
      <point x="837" y="534" type="line"/>
      <point x="657" y="1060" type="line"/>
    </contour>
  </outline>
</glyph>
<glyph name="B" format="1">
  <advance width="1097"/>
  <unicode hex="0042"/>
  <outline>
    <contour>
      <point x="46" y="0" type="line"/>
      <point x="56" y="58" type="line"/>
      <point x="224" y="96" type="line"/>
      <point x="224" y="1129" type="line"/>
      <point x="53" y="1155" type="line"/>
      <point x="62" y="1211" type="line"/>
      <point x="208" y="1232"/>
      <point x="352" y="1257"/>
      <point x="530" y="1257" type="curve" smooth="yes"/>
      <point x="817" y="1257"/>
      <point x="947" y="1118"/>
      <point x="947" y="967" type="curve" smooth="yes"/>
      <point x="947" y="847"/>
      <point x="878" y="741"/>
      <point x="741" y="679" type="curve"/>
      <point x="741" y="672" type="line"/>
      <point x="946" y="661"/>
      <point x="1051" y="513"/>
      <point x="1051" y="380" type="curve" smooth="yes"/>
      <point x="1051" y="188"/>
      <point x="928" y="0"/>
      <point x="518" y="0" type="curve" smooth="yes"/>
    </contour>
    <contour>
      <point x="371" y="75" type="line"/>
      <point x="603" y="75" type="line" smooth="yes"/>
      <point x="819" y="75"/>
      <point x="900" y="213"/>
      <point x="900" y="347" type="curve" smooth="yes"/>
      <point x="900" y="471"/>
      <point x="821" y="618"/>
      <point x="610" y="618" type="curve" smooth="yes"/>
      <point x="371" y="618" type="line"/>
    </contour>
    <contour>
      <point x="371" y="685" type="line"/>
      <point x="655" y="685" type="line"/>
      <point x="734" y="727"/>
      <point x="802" y="806"/>
      <point x="802" y="922" type="curve" smooth="yes"/>
      <point x="802" y="1078"/>
      <point x="701" y="1192"/>
      <point x="471" y="1192" type="curve" smooth="yes"/>
      <point x="446" y="1192"/>
      <point x="398" y="1191"/>
      <point x="371" y="1186" type="curve"/>
    </contour>
  </outline>
</glyph>
<glyph name="D" format="1">
  <advance width="1302"/>
  <unicode hex="0044"/>
  <outline>
    <contour>
      <point x="45" y="0" type="line"/>
      <point x="56" y="58" type="line"/>
      <point x="227" y="101" type="line"/>
      <point x="227" y="1128" type="line"/>
      <point x="54" y="1154" type="line"/>
      <point x="64" y="1210" type="line"/>
      <point x="261" y="1241"/>
      <point x="411" y="1259"/>
      <point x="557" y="1259" type="curve" smooth="yes"/>
      <point x="1092" y="1259"/>
      <point x="1254" y="962"/>
      <point x="1254" y="654" type="curve" smooth="yes"/>
      <point x="1254" y="312"/>
      <point x="1020" y="0"/>
      <point x="508" y="0" type="curve" smooth="yes"/>
    </contour>
    <contour>
      <point x="373" y="79" type="line"/>
      <point x="535" y="79" type="line" smooth="yes"/>
      <point x="890" y="79"/>
      <point x="1091" y="299"/>
      <point x="1091" y="599" type="curve" smooth="yes"/>
      <point x="1091" y="934"/>
      <point x="900" y="1181"/>
      <point x="521" y="1181" type="curve" smooth="yes"/>
      <point x="480" y="1181"/>
      <point x="414" y="1181"/>
      <point x="373" y="1176" type="curve"/>
    </contour>
  </outline>
</glyph>
<glyph name="G" format="1">
  <advance width="1258"/>
  <unicode hex="0047"/>
  <outline>
    <contour>
      <point x="50" y="591" type="curve" smooth="yes"/>
      <point x="50" y="958"/>
      <point x="320" y="1262"/>
      <point x="677" y="1262" type="curve" smooth="yes"/>
      <point x="832" y="1262"/>
      <point x="982" y="1228"/>
      <point x="1080" y="1162" type="curve"/>
      <point x="1052" y="841" type="line"/>
      <point x="986" y="852" type="line"/>
      <point x="953" y="1066" type="line"/>
      <point x="907" y="1119"/>
      <point x="793" y="1182"/>
      <point x="635" y="1182" type="curve" smooth="yes"/>
      <point x="396" y="1182"/>
      <point x="214" y="985"/>
      <point x="214" y="640" type="curve" smooth="yes"/>
      <point x="214" y="347"/>
      <point x="367" y="61"/>
      <point x="710" y="61" type="curve" smooth="yes"/>
      <point x="796" y="61"/>
      <point x="874" y="84"/>
      <point x="926" y="119" type="curve"/>
      <point x="927" y="463" type="line"/>
      <point x="688" y="495" type="line"/>
      <point x="698" y="556" type="line"/>
      <point x="1216" y="556" type="line"/>
      <point x="1206" y="499" type="line"/>
      <point x="1077" y="467" type="line"/>
      <point x="1077" y="79" type="line"/>
      <point x="944" y="0"/>
      <point x="801" y="-26"/>
      <point x="601" y="-26" type="curve" smooth="yes"/>
      <point x="262" y="-26"/>
      <point x="50" y="228"/>
    </contour>
  </outline>
</glyph>
<glyph name="H" format="1">
  <advance width="1435"/>
  <unicode hex="0048"/>
  <outline>
    <contour>
      <point x="46" y="1187" type="line"/>
      <point x="53" y="1244" type="line"/>
      <point x="554" y="1244" type="line"/>
      <point x="546" y="1187" type="line"/>
      <point x="377" y="1156" type="line"/>
      <point x="377" y="672" type="line"/>
      <point x="1050" y="672" type="line"/>
      <point x="1050" y="1154" type="line"/>
      <point x="867" y="1187" type="line"/>
      <point x="876" y="1244" type="line"/>
      <point x="1376" y="1244" type="line"/>
      <point x="1367" y="1187" type="line"/>
      <point x="1200" y="1156" type="line"/>
      <point x="1200" y="90" type="line"/>
      <point x="1382" y="63" type="line"/>
      <point x="1374" y="0" type="line"/>
      <point x="875" y="0" type="line"/>
      <point x="885" y="58" type="line"/>
      <point x="1050" y="96" type="line"/>
      <point x="1050" y="592" type="line"/>
      <point x="377" y="591" type="line"/>
      <point x="377" y="90" type="line"/>
      <point x="563" y="63" type="line"/>
      <point x="551" y="0" type="line"/>
      <point x="54" y="0" type="line"/>
      <point x="60" y="58" type="line"/>
      <point x="228" y="96" type="line"/>
      <point x="228" y="1154" type="line"/>
    </contour>
  </outline>
</glyph>
<glyph name="I" format="1">
  <advance width="614"/>
  <unicode hex="0049"/>
  <outline>
    <contour>
      <point x="46" y="1187" type="line"/>
      <point x="54" y="1244" type="line"/>
      <point x="555" y="1244" type="line"/>
      <point x="546" y="1187" type="line"/>
      <point x="374" y="1156" type="line"/>
      <point x="374" y="90" type="line"/>
      <point x="561" y="63" type="line"/>
      <point x="551" y="0" type="line"/>
      <point x="54" y="0" type="line"/>
      <point x="61" y="58" type="line"/>
      <point x="223" y="96" type="line"/>
      <point x="223" y="1154" type="line"/>
    </contour>
  </outline>
</glyph>
<glyph name="K" format="1">
  <advance width="1251"/>
  <unicode hex="004B"/>
  <outline>
    <contour>
      <point x="46" y="1187" type="line"/>
      <point x="56" y="1244" type="line"/>
      <point x="556" y="1244" type="line"/>
      <point x="549" y="1187" type="line"/>
      <point x="378" y="1152" type="line"/>
      <point x="378" y="95" type="line"/>
      <point x="565" y="63" type="line"/>
      <point x="555" y="0" type="line"/>
      <point x="55" y="0" type="line"/>
      <point x="63" y="58" type="line"/>
      <point x="227" y="101" type="line"/>
      <point x="227" y="1149" type="line"/>
    </contour>
    <contour>
      <point x="417" y="623" type="line"/>
      <point x="452" y="660"/>
      <point x="518" y="730"/>
      <point x="567" y="790" type="curve" smooth="yes"/>
      <point x="856" y="1151" type="line"/>
      <point x="691" y="1187" type="line"/>
      <point x="697" y="1244" type="line"/>
      <point x="1147" y="1244" type="line"/>
      <point x="1140" y="1187" type="line"/>
      <point x="975" y="1152" type="line"/>
      <point x="564" y="649" type="line"/>
      <point x="809" y="358" type="line" smooth="yes"/>
      <point x="956" y="184"/>
      <point x="1030" y="97"/>
      <point x="1154" y="68" type="curve" smooth="yes"/>
      <point x="1200" y="58" type="line"/>
      <point x="1189" y="2" type="line"/>
      <point x="1143" y="-14"/>
      <point x="1111" y="-21"/>
      <point x="1070" y="-21" type="curve" smooth="yes"/>
      <point x="920" y="-21"/>
      <point x="812" y="97"/>
      <point x="696" y="246" type="curve" smooth="yes"/>
      <point x="419" y="604" type="line"/>
    </contour>
  </outline>
</glyph>
<glyph name="L" format="1">
  <advance width="1078"/>
  <unicode hex="004C"/>
  <outline>
    <contour>
      <point x="52" y="0" type="line"/>
      <point x="60" y="58" type="line"/>
      <point x="227" y="96" type="line"/>
      <point x="227" y="1148" type="line"/>
      <point x="47" y="1186" type="line"/>
      <point x="56" y="1244" type="line"/>
      <point x="558" y="1244" type="line"/>
      <point x="551" y="1186" type="line"/>
      <point x="376" y="1152" type="line"/>
      <point x="376" y="75" type="line"/>
      <point x="863" y="75" type="line"/>
      <point x="968" y="341" type="line"/>
      <point x="1032" y="331" type="line"/>
      <point x="998" y="0" type="line"/>
    </contour>
  </outline>
</glyph>
<glyph name="M" format="1">
  <advance width="1711"/>
  <unicode hex="004D"/>
  <outline>
    <contour>
      <point x="44" y="0" type="line"/>
      <point x="52" y="54" type="line"/>
      <point x="220" y="92" type="line"/>
      <point x="297" y="1151" type="line"/>
      <point x="113" y="1188" type="line"/>
      <point x="122" y="1244" type="line"/>
      <point x="482" y="1244" type="line"/>
      <point x="557" y="1053" type="line"/>
      <point x="844" y="268" type="line"/>
      <point x="1178" y="1092" type="line"/>
      <point x="1245" y="1244" type="line"/>
      <point x="1605" y="1244" type="line"/>
      <point x="1598" y="1188" type="line"/>
      <point x="1427" y="1154" type="line"/>
      <point x="1481" y="86" type="line"/>
      <point x="1662" y="60" type="line"/>
      <point x="1656" y="0" type="line"/>
      <point x="1157" y="0" type="line"/>
      <point x="1165" y="54" type="line"/>
      <point x="1334" y="92" type="line"/>
      <point x="1277" y="1087" type="line"/>
      <point x="854" y="55" type="line"/>
      <point x="765" y="41" type="line"/>
      <point x="389" y="1059" type="line"/>
      <point x="318" y="86" type="line"/>
      <point x="501" y="60" type="line"/>
      <point x="491" y="0" type="line"/>
    </contour>
  </outline>
</glyph>
<glyph name="Q" format="1">
  <advance width="1273"/>
  <unicode hex="0051"/>
  <outline>
    <contour>
      <point x="50" y="614" type="curve" smooth="yes"/>
      <point x="50" y="999"/>
      <point x="297" y="1274"/>
      <point x="676" y="1274" type="curve" smooth="yes"/>
      <point x="1026" y="1274"/>
      <point x="1225" y="985"/>
      <point x="1225" y="629" type="curve" smooth="yes"/>
      <point x="1225" y="346"/>
      <point x="1058" y="61"/>
      <point x="755" y="-9" type="curve"/>
      <point x="841" y="-199"/>
      <point x="951" y="-263"/>
      <point x="1191" y="-294" type="curve"/>
      <point x="1190" y="-309"/>
      <point x="1186" y="-343"/>
      <point x="1181" y="-355" type="curve"/>
      <point x="1133" y="-378"/>
      <point x="1073" y="-385"/>
      <point x="1017" y="-385" type="curve" smooth="yes"/>
      <point x="838" y="-385"/>
      <point x="698" y="-233"/>
      <point x="672" y="-21" type="curve"/>
      <point x="655" y="-24"/>
      <point x="621" y="-27"/>
      <point x="600" y="-27" type="curve" smooth="yes"/>
      <point x="279" y="-27"/>
      <point x="50" y="257"/>
    </contour>
    <contour>
      <point x="207" y="670" type="curve" smooth="yes"/>
      <point x="207" y="368"/>
      <point x="368" y="60"/>
      <point x="699" y="47" type="curve"/>
      <point x="950" y="103"/>
      <point x="1068" y="333"/>
      <point x="1068" y="568" type="curve" smooth="yes"/>
      <point x="1068" y="906"/>
      <point x="898" y="1193"/>
      <point x="623" y="1193" type="curve" smooth="yes"/>
      <point x="357" y="1193"/>
      <point x="207" y="981"/>
    </contour>
  </outline>
</glyph>
<glyph name="R" format="1">
  <advance width="1223"/>
  <unicode hex="0052"/>
  <outline>
    <contour>
      <point x="46" y="0" type="line"/>
      <point x="55" y="58" type="line"/>
      <point x="217" y="96" type="line"/>
      <point x="217" y="1127" type="line"/>
      <point x="51" y="1153" type="line"/>
      <point x="61" y="1209" type="line"/>
      <point x="209" y="1233"/>
      <point x="353" y="1254"/>
      <point x="501" y="1254" type="curve" smooth="yes"/>
      <point x="759" y="1254"/>
      <point x="952" y="1166"/>
      <point x="952" y="952" type="curve" smooth="yes"/>
      <point x="952" y="820"/>
      <point x="870" y="690"/>
      <point x="671" y="605" type="curve"/>
      <point x="671" y="604" type="line"/>
      <point x="857" y="336" type="line" smooth="yes"/>
      <point x="990" y="145"/>
      <point x="1039" y="94"/>
      <point x="1134" y="64" type="curve" smooth="yes"/>
      <point x="1175" y="51" type="line"/>
      <point x="1164" y="-2" type="line"/>
      <point x="1121" y="-17"/>
      <point x="1095" y="-19"/>
      <point x="1058" y="-19" type="curve" smooth="yes"/>
      <point x="921" y="-19"/>
      <point x="828" y="94"/>
      <point x="739" y="245" type="curve" smooth="yes"/>
      <point x="558" y="554" type="line"/>
      <point x="364" y="554" type="line"/>
      <point x="364" y="96" type="line"/>
      <point x="564" y="64" type="line"/>
      <point x="554" y="0" type="line"/>
    </contour>
    <contour>
      <point x="364" y="628" type="line"/>
      <point x="577" y="628" type="line"/>
      <point x="691" y="669"/>
      <point x="794" y="771"/>
      <point x="794" y="910" type="curve" smooth="yes"/>
      <point x="794" y="1082"/>
      <point x="678" y="1189"/>
      <point x="485" y="1189" type="curve" smooth="yes"/>
      <point x="423" y="1189"/>
      <point x="364" y="1184"/>
      <point x="364" y="1184" type="curve"/>
    </contour>
  </outline>
</glyph>
<glyph name="T" format="1">
  <advance width="1166"/>
  <unicode hex="0054"/>
  <outline>
    <contour>
      <point x="46" y="1244" type="line"/>
      <point x="1118" y="1244" type="line"/>
      <point x="1084" y="909" type="line"/>
      <point x="1011" y="920" type="line"/>
      <point x="984" y="1173" type="line"/>
      <point x="646" y="1173" type="line"/>
      <point x="646" y="94" type="line"/>
      <point x="827" y="63" type="line"/>
      <point x="815" y="0" type="line"/>
      <point x="318" y="0" type="line"/>
      <point x="324" y="58" type="line"/>
      <point x="496" y="96" type="line"/>
      <point x="496" y="1173" type="line"/>
      <point x="171" y="1173" type="line"/>
      <point x="126" y="912" type="line"/>
      <point x="55" y="923" type="line"/>
    </contour>
  </outline>
</glyph>
<glyph name="W" format="1">
  <advance width="1841"/>
  <unicode hex="0057"/>
  <outline>
    <contour>
      <point x="44" y="1188" type="line"/>
      <point x="52" y="1244" type="line"/>
      <point x="506" y="1244" type="line"/>
      <point x="497" y="1190" type="line"/>
      <point x="331" y="1156" type="line"/>
      <point x="595" y="225" type="line"/>
      <point x="885" y="1199" type="line"/>
      <point x="996" y="1214" type="line"/>
      <point x="1262" y="233" type="line"/>
      <point x="1554" y="1151" type="line"/>
      <point x="1370" y="1189" type="line"/>
      <point x="1378" y="1244" type="line"/>
      <point x="1795" y="1244" type="line"/>
      <point x="1787" y="1188" type="line"/>
      <point x="1667" y="1154" type="line"/>
      <point x="1287" y="-4" type="line"/>
      <point x="1178" y="-25" type="line"/>
      <point x="913" y="971" type="line"/>
      <point x="623" y="-4" type="line"/>
      <point x="506" y="-24" type="line"/>
      <point x="175" y="1153" type="line"/>
    </contour>
  </outline>
</glyph>
<glyph name="bracketleft" format="1">
  <advance width="484"/>
  <unicode hex="005B"/>
  <outline>
    <contour>
      <point x="443" y="-306" type="line"/>
      <point x="206" y="-286" type="line"/>
      <point x="206" y="1164" type="line"/>
      <point x="441" y="1185" type="line"/>
      <point x="434" y="1256" type="line"/>
      <point x="76" y="1256" type="line"/>
      <point x="75" y="-375" type="line"/>
      <point x="435" y="-375" type="line"/>
    </contour>
  </outline>
</glyph>
<glyph name="backslash" format="1">
  <advance width="651"/>
  <unicode hex="005C"/>
  <outline>
    <contour>
      <point x="41" y="1259" type="line"/>
      <point x="149" y="1254" type="line"/>
      <point x="611" y="-367" type="line"/>
      <point x="507" y="-362" type="line"/>
    </contour>
  </outline>
</glyph>
<glyph name="asciicircum" format="1">
  <advance width="731"/>
  <unicode hex="005E"/>
  <outline>
    <contour>
      <point x="46.5" y="826" type="line"/>
      <point x="335" y="1237.5" type="line"/>
      <point x="390.5" y="1250.5" type="line"/>
      <point x="685" y="824" type="line"/>
      <point x="637" y="791.5" type="line"/>
      <point x="359.5" y="1098" type="line"/>
      <point x="350" y="1098" type="line"/>
      <point x="88" y="797.5" type="line"/>
    </contour>
  </outline>
</glyph>
<glyph name="grave" format="1">
  <advance width="459"/>
  <unicode hex="0060"/>
  <outline>
    <contour>
      <point x="100" y="1660" type="line"/>
      <point x="204.5" y="1697.5" type="line"/>
      <point x="337" y="1363" type="line"/>
      <point x="286" y="1332" type="line"/>
    </contour>
  </outline>
</glyph>
<glyph name="a" format="1">
  <advance width="1031"/>
  <unicode hex="0061"/>
  <outline>
    <contour>
      <point x="39" y="0" type="line"/>
      <point x="46" y="58" type="line"/>
      <point x="161.5" y="100.5" type="line"/>
      <point x="482" y="918.5" type="line"/>
      <point x="584" y="941" type="line"/>
      <point x="886.5" y="95" type="line"/>
      <point x="991" y="63.5" type="line"/>
      <point x="982.5" y="0.5" type="line"/>
      <point x="585.5" y="0.5" type="line"/>
      <point x="596" y="58.5" type="line"/>
      <point x="729.5" y="97" type="line"/>
      <point x="501" y="747" type="line"/>
      <point x="267.5" y="94.5" type="line"/>
      <point x="417.5" y="63" type="line"/>
      <point x="407.5" y="0" type="line"/>
    </contour>
    <contour>
      <point x="305.5" y="308" type="line"/>
      <point x="334.5" y="387" type="line"/>
      <point x="692" y="387" type="line"/>
      <point x="716" y="308" type="line"/>
    </contour>
  </outline>
</glyph>
<glyph name="b" format="1">
  <advance width="890"/>
  <unicode hex="0062"/>
  <outline>
    <contour>
      <point x="41" y="0" type="line"/>
      <point x="50.5" y="58" type="line"/>
      <point x="188.5" y="96.5" type="line"/>
      <point x="188.5" y="827" type="line"/>
      <point x="47" y="850" type="line"/>
      <point x="57" y="906.5" type="line"/>
      <point x="155.5" y="923"/>
      <point x="296.5" y="947.5"/>
      <point x="441" y="947.5" type="curve" smooth="yes"/>
      <point x="668" y="947.5"/>
      <point x="772" y="848"/>
      <point x="772" y="726.5" type="curve" smooth="yes"/>
      <point x="772" y="634"/>
      <point x="720" y="549"/>
      <point x="606.5" y="507" type="curve"/>
      <point x="606.5" y="500.5" type="line"/>
      <point x="764" y="488.5"/>
      <point x="852.5" y="401.5"/>
      <point x="852.5" y="286" type="curve" smooth="yes"/>
      <point x="852.5" y="125"/>
      <point x="730.5" y="0"/>
      <point x="414" y="0" type="curve" smooth="yes"/>
    </contour>
    <contour>
      <point x="335" y="75" type="line"/>
      <point x="454.5" y="75" type="line" smooth="yes"/>
      <point x="635.5" y="75"/>
      <point x="701.5" y="147.5"/>
      <point x="701.5" y="268" type="curve" smooth="yes"/>
      <point x="701.5" y="353"/>
      <point x="642" y="446.5"/>
      <point x="486" y="446.5" type="curve" smooth="yes"/>
      <point x="335" y="446.5" type="line"/>
    </contour>
    <contour>
      <point x="335" y="512.5" type="line"/>
      <point x="529.5" y="512.5" type="line"/>
      <point x="594" y="547.5"/>
      <point x="631" y="589"/>
      <point x="631" y="700.5" type="curve" smooth="yes"/>
      <point x="631" y="806.5"/>
      <point x="553" y="882"/>
      <point x="382.5" y="882" type="curve" smooth="yes"/>
      <point x="370" y="882"/>
      <point x="348.5" y="881.5"/>
      <point x="335" y="877.5" type="curve"/>
    </contour>
  </outline>
</glyph>
<glyph name="d" format="1">
  <advance width="999"/>
  <unicode hex="0064"/>
  <outline>
    <contour>
      <point x="40" y="0" type="line"/>
      <point x="51" y="58" type="line"/>
      <point x="191.5" y="100.5" type="line"/>
      <point x="191.5" y="814" type="line"/>
      <point x="44.5" y="840" type="line"/>
      <point x="54" y="896" type="line"/>
      <point x="212.5" y="924"/>
      <point x="335" y="939.5"/>
      <point x="452" y="939.5" type="curve" smooth="yes"/>
      <point x="845" y="939.5"/>
      <point x="958" y="721.5"/>
      <point x="958" y="497.5" type="curve" smooth="yes"/>
      <point x="958" y="196.5"/>
      <point x="729" y="0"/>
      <point x="372" y="0" type="curve" smooth="yes"/>
    </contour>
    <contour>
      <point x="337.5" y="79" type="line"/>
      <point x="409.5" y="79" type="line" smooth="yes"/>
      <point x="673" y="79"/>
      <point x="804" y="227"/>
      <point x="804" y="462" type="curve" smooth="yes"/>
      <point x="804" y="720.5"/>
      <point x="668.5" y="861"/>
      <point x="415" y="861" type="curve" smooth="yes"/>
      <point x="394" y="861"/>
      <point x="357" y="859.5"/>
      <point x="337.5" y="857" type="curve"/>
    </contour>
  </outline>
</glyph>
<glyph name="h" format="1">
  <advance width="1150"/>
  <unicode hex="0068"/>
  <outline>
    <contour>
      <point x="43" y="864.5" type="line"/>
      <point x="50" y="922" type="line"/>
      <point x="490" y="922" type="line"/>
      <point x="482.5" y="864.5" type="line"/>
      <point x="344" y="834" type="line"/>
      <point x="344" y="497" type="line"/>
      <point x="802" y="497" type="line"/>
      <point x="802" y="831" type="line"/>
      <point x="648.5" y="864.5" type="line"/>
      <point x="657.5" y="922" type="line"/>
      <point x="1098" y="922" type="line"/>
      <point x="1088" y="864.5" type="line"/>
      <point x="951" y="834" type="line"/>
      <point x="951" y="89.5" type="line"/>
      <point x="1103.5" y="63" type="line"/>
      <point x="1095" y="0" type="line"/>
      <point x="657" y="0" type="line"/>
      <point x="666" y="58" type="line"/>
      <point x="802" y="96.5" type="line"/>
      <point x="802" y="415.5" type="line"/>
      <point x="344" y="415.5" type="line"/>
      <point x="344" y="89.5" type="line"/>
      <point x="499" y="63" type="line"/>
      <point x="487" y="0" type="line"/>
      <point x="50.5" y="0" type="line"/>
      <point x="57" y="58" type="line"/>
      <point x="194" y="96.5" type="line"/>
      <point x="194" y="831" type="line"/>
    </contour>
  </outline>
</glyph>
<glyph name="i" format="1">
  <advance width="543"/>
  <unicode hex="0069"/>
  <outline>
    <contour>
      <point x="42" y="864.5" type="line"/>
      <point x="50.5" y="922" type="line"/>
      <point x="91" y="922"/>
      <point x="414.5" y="922"/>
      <point x="491" y="922" type="curve"/>
      <point x="482.5" y="864.5" type="line"/>
      <point x="340.5" y="834" type="line"/>
      <point x="340.5" y="89.5" type="line"/>
      <point x="497.5" y="63" type="line"/>
      <point x="488" y="0" type="line"/>
      <point x="50.5" y="0" type="line"/>
      <point x="57" y="58" type="line"/>
      <point x="189.5" y="96.5" type="line"/>
      <point x="189.5" y="831" type="line"/>
    </contour>
  </outline>
</glyph>
<glyph name="k" format="1">
  <advance width="1066"/>
  <unicode hex="006B"/>
  <outline>
    <contour>
      <point x="42" y="864.5" type="line"/>
      <point x="51.5" y="922" type="line"/>
      <point x="488.5" y="922" type="line"/>
      <point x="482" y="864.5" type="line"/>
      <point x="343.5" y="829.5" type="line"/>
      <point x="343.5" y="94.5" type="line"/>
      <point x="511" y="63" type="line"/>
      <point x="504" y="0" type="line"/>
      <point x="50.5" y="0" type="line"/>
      <point x="58.5" y="58" type="line"/>
      <point x="193" y="100.5" type="line"/>
      <point x="193" y="826.5" type="line"/>
    </contour>
    <contour>
      <point x="387.5" y="463" type="line"/>
      <point x="424.5" y="499.5"/>
      <point x="473.5" y="549"/>
      <point x="529" y="609.5" type="curve" smooth="yes"/>
      <point x="741" y="832.5" type="line"/>
      <point x="615.5" y="864.5" type="line"/>
      <point x="621.5" y="922" type="line"/>
      <point x="996.5" y="922" type="line"/>
      <point x="989" y="863" type="line"/>
      <point x="857.5" y="831.5" type="line"/>
      <point x="526.5" y="483" type="line"/>
      <point x="635" y="344.5" type="line" smooth="yes"/>
      <point x="766" y="177.5"/>
      <point x="871" y="90"/>
      <point x="980" y="64.5" type="curve" smooth="yes"/>
      <point x="1018" y="56" type="line"/>
      <point x="1012" y="0" type="line"/>
      <point x="977.5" y="-14"/>
      <point x="938.5" y="-20.5"/>
      <point x="900.5" y="-20.5" type="curve" smooth="yes"/>
      <point x="735.5" y="-20.5"/>
      <point x="622.5" y="98"/>
      <point x="524.5" y="244" type="curve" smooth="yes"/>
      <point x="389" y="445" type="line"/>
    </contour>
  </outline>
</glyph>
<glyph name="l" format="1">
  <advance width="898"/>
  <unicode hex="006C"/>
  <outline>
    <contour>
      <point x="45" y="864" type="line"/>
      <point x="53.5" y="922" type="line"/>
      <point x="501" y="922" type="line"/>
      <point x="494" y="864" type="line"/>
      <point x="345.5" y="830" type="line"/>
      <point x="345.5" y="75" type="line"/>
      <point x="705.5" y="75" type="line"/>
      <point x="786.5" y="291.5" type="line"/>
      <point x="859.5" y="280.5" type="line"/>
      <point x="839.5" y="0" type="line"/>
      <point x="50.5" y="0" type="line"/>
      <point x="57.5" y="58" type="line"/>
      <point x="195" y="96.5" type="line"/>
      <point x="195" y="826" type="line"/>
    </contour>
  </outline>
</glyph>
<glyph name="m" format="1">
  <advance width="1386"/>
  <unicode hex="006D"/>
  <outline>
    <contour>
      <point x="37" y="0" type="line"/>
      <point x="45" y="53.5" type="line"/>
      <point x="182" y="92.5" type="line"/>
      <point x="230.5" y="828.5" type="line"/>
      <point x="77" y="866" type="line"/>
      <point x="85.5" y="922" type="line"/>
      <point x="409" y="922" type="line"/>
      <point x="491" y="731" type="line"/>
      <point x="688.5" y="274.5" type="line"/>
      <point x="907" y="769" type="line"/>
      <point x="977" y="922" type="line"/>
      <point x="1309" y="922" type="line"/>
      <point x="1301.5" y="866" type="line"/>
      <point x="1161.5" y="832" type="line"/>
      <point x="1192.5" y="87" type="line"/>
      <point x="1343.5" y="60" type="line"/>
      <point x="1337.5" y="0" type="line"/>
      <point x="893.5" y="0" type="line"/>
      <point x="902" y="53.5" type="line"/>
      <point x="1045.5" y="92.5" type="line"/>
      <point x="1018" y="779" type="line"/>
      <point x="699" y="60" type="line"/>
      <point x="610" y="45.5" type="line"/>
      <point x="318" y="742" type="line"/>
      <point x="281.5" y="87.5" type="line"/>
      <point x="433.5" y="58.5" type="line"/>
      <point x="424.5" y="0" type="line"/>
    </contour>
  </outline>
</glyph>
<glyph name="q" format="1">
  <advance width="1008"/>
  <unicode hex="0071"/>
  <outline>
    <contour>
      <point x="37" y="452.5" type="curve" smooth="yes"/>
      <point x="37" y="732"/>
      <point x="243" y="940.5"/>
      <point x="527.5" y="940.5" type="curve" smooth="yes"/>
      <point x="808.5" y="940.5"/>
      <point x="967.5" y="730.5"/>
      <point x="967.5" y="481" type="curve" smooth="yes"/>
      <point x="967.5" y="237.5"/>
      <point x="820" y="47.5"/>
      <point x="603" y="-9" type="curve"/>
      <point x="660" y="-151"/>
      <point x="754.5" y="-230"/>
      <point x="945" y="-227" type="curve"/>
      <point x="943.5" y="-242"/>
      <point x="940.5" y="-275.5"/>
      <point x="936" y="-287.5" type="curve"/>
      <point x="887.5" y="-313"/>
      <point x="835" y="-326"/>
      <point x="784.5" y="-326" type="curve" smooth="yes"/>
      <point x="626" y="-326"/>
      <point x="518" y="-197"/>
      <point x="527.5" y="-26" type="curve"/>
      <point x="229.5" y="-48"/>
      <point x="37" y="171"/>
    </contour>
    <contour>
      <point x="190" y="510.5" type="curve" smooth="yes"/>
      <point x="190" y="259"/>
      <point x="332" y="51"/>
      <point x="552" y="45" type="curve"/>
      <point x="716" y="88"/>
      <point x="816" y="230.5"/>
      <point x="816" y="421.5" type="curve" smooth="yes"/>
      <point x="816" y="665.5"/>
      <point x="684.5" y="865.5"/>
      <point x="481.5" y="865.5" type="curve" smooth="yes"/>
      <point x="317.5" y="865.5"/>
      <point x="190" y="739.5"/>
    </contour>
  </outline>
</glyph>
<glyph name="t" format="1">
  <advance width="942"/>
  <unicode hex="0074"/>
  <outline>
    <contour>
      <point x="56" y="922" type="line"/>
      <point x="886" y="922" type="line"/>
      <point x="857.5" y="636.5" type="line"/>
      <point x="785" y="647" type="line"/>
      <point x="757" y="850.5" type="line"/>
      <point x="542.5" y="850.5" type="line"/>
      <point x="542.5" y="93.5" type="line"/>
      <point x="698.5" y="63" type="line"/>
      <point x="686" y="0" type="line"/>
      <point x="245" y="0" type="line"/>
      <point x="251" y="58" type="line"/>
      <point x="393" y="96.5" type="line"/>
      <point x="393" y="850.5" type="line"/>
      <point x="171.5" y="850.5" type="line"/>
      <point x="135.5" y="639.5" type="line"/>
      <point x="64" y="650" type="line"/>
    </contour>
  </outline>
</glyph>
<glyph name="v" format="1">
  <advance width="1034"/>
  <unicode hex="0076"/>
  <outline>
    <contour>
      <point x="41" y="866" type="line"/>
      <point x="48" y="922" type="line"/>
      <point x="466.5" y="922" type="line"/>
      <point x="459.5" y="866" type="line"/>
      <point x="326" y="834" type="line"/>
      <point x="543" y="200.5" type="line"/>
      <point x="775" y="830" type="line"/>
      <point x="631" y="866" type="line"/>
      <point x="636" y="922" type="line"/>
      <point x="989.5" y="922" type="line"/>
      <point x="984" y="866" type="line"/>
      <point x="882.5" y="834" type="line"/>
      <point x="566" y="-3.5" type="line"/>
      <point x="464.5" y="-25" type="line"/>
      <point x="161" y="830" type="line"/>
    </contour>
  </outline>
</glyph>
<glyph name="z" format="1">
  <advance width="871"/>
  <unicode hex="007A"/>
  <outline>
    <contour>
      <point x="40" y="70.5" type="line"/>
      <point x="623" y="847" type="line"/>
      <point x="220.5" y="847" type="line"/>
      <point x="154.5" y="631" type="line"/>
      <point x="84.5" y="645.5" type="line"/>
      <point x="93.5" y="922" type="line"/>
      <point x="808.5" y="922" type="line"/>
      <point x="811" y="865.5" type="line"/>
      <point x="217" y="79" type="line"/>
      <point x="672.5" y="79" type="line"/>
      <point x="760" y="296.5" type="line"/>
      <point x="829.5" y="285" type="line"/>
      <point x="801" y="0" type="line"/>
      <point x="46.5" y="0" type="line"/>
    </contour>
  </outline>
</glyph>
<glyph name="bar" format="1">
  <advance width="247"/>
  <unicode hex="007C"/>
  <outline>
    <contour>
      <point x="75" y="-367" type="line"/>
      <point x="75" y="1261" type="line"/>
      <point x="171" y="1248" type="line"/>
      <point x="171" y="-380" type="line"/>
    </contour>
  </outline>
</glyph>
<glyph name="asciitilde" format="1">
  <advance width="924"/>
  <unicode hex="007E"/>
  <outline>
    <contour>
      <point x="70.5" y="417" type="line"/>
      <point x="70.5" y="417"/>
      <point x="131.5" y="643"/>
      <point x="285.5" y="612.5" type="curve" smooth="yes"/>
      <point x="685" y="541" type="line" smooth="yes"/>
      <point x="753.5" y="526"/>
      <point x="802" y="624"/>
      <point x="802" y="624" type="curve"/>
      <point x="857" y="622.5" type="line"/>
      <point x="857" y="622.5"/>
      <point x="791.5" y="390"/>
      <point x="635" y="421.5" type="curve" smooth="yes"/>
      <point x="236" y="492.5" type="line" smooth="yes"/>
      <point x="170" y="507.5"/>
      <point x="117.5" y="403.5"/>
      <point x="117.5" y="403.5" type="curve"/>
    </contour>
  </outline>
</glyph>
<glyph name="exclamdown" format="1">
  <advance width="291"/>
  <unicode hex="00A1"/>
  <outline>
    <contour>
      <point x="63" y="-377" type="curve" smooth="yes"/>
      <point x="63" y="-208"/>
      <point x="87" y="201"/>
      <point x="114" y="524" type="curve"/>
      <point x="117" y="529" type="line"/>
      <point x="181" y="515" type="line"/>
      <point x="181" y="512" type="line"/>
      <point x="201" y="193"/>
      <point x="223" y="-266"/>
      <point x="223" y="-375" type="curve" smooth="yes"/>
      <point x="223" y="-377" type="line"/>
      <point x="214" y="-405"/>
      <point x="158" y="-417"/>
      <point x="122" y="-417" type="curve" smooth="yes"/>
      <point x="95" y="-417"/>
      <point x="63" y="-408"/>
    </contour>
    <contour>
      <point x="55" y="797" type="curve" smooth="yes"/>
      <point x="55" y="861"/>
      <point x="89" y="910"/>
      <point x="147" y="910" type="curve" smooth="yes"/>
      <point x="203" y="910"/>
      <point x="238" y="858"/>
      <point x="238" y="796" type="curve" smooth="yes"/>
      <point x="238" y="735"/>
      <point x="197" y="692"/>
      <point x="147" y="692" type="curve" smooth="yes"/>
      <point x="96" y="692"/>
      <point x="55" y="736"/>
    </contour>
  </outline>
</glyph>
<glyph name="cent" format="1">
  <advance width="771"/>
  <unicode hex="00A2"/>
  <outline>
    <contour>
      <point x="48" y="411.5" type="curve" smooth="yes"/>
      <point x="48" y="708.5"/>
      <point x="231" y="919.5"/>
      <point x="448" y="919.5" type="curve" smooth="yes"/>
      <point x="616" y="919.5"/>
      <point x="679" y="838"/>
      <point x="679" y="759" type="curve" smooth="yes"/>
      <point x="679" y="706.5"/>
      <point x="649" y="671"/>
      <point x="583.5" y="660.5" type="curve"/>
      <point x="546.5" y="762"/>
      <point x="496.5" y="843"/>
      <point x="400.5" y="843" type="curve" smooth="yes"/>
      <point x="282" y="843"/>
      <point x="188.5" y="698"/>
      <point x="188.5" y="486" type="curve" smooth="yes"/>
      <point x="188.5" y="253"/>
      <point x="295.5" y="68.5"/>
      <point x="479.5" y="68.5" type="curve" smooth="yes"/>
      <point x="578.5" y="68.5"/>
      <point x="650.5" y="109"/>
      <point x="698" y="147.5" type="curve"/>
      <point x="719.5" y="102" type="line"/>
      <point x="669" y="32.5"/>
      <point x="543.5" y="-29.5"/>
      <point x="414" y="-29.5" type="curve" smooth="yes"/>
      <point x="183" y="-29.5"/>
      <point x="48" y="172"/>
    </contour>
    <contour>
      <point x="337" y="1134.5" type="line"/>
      <point x="463" y="1152" type="line"/>
      <point x="439" y="883" type="line"/>
      <point x="368.5" y="883" type="line"/>
    </contour>
    <contour>
      <point x="347" y="-266.5" type="line"/>
      <point x="373.5" y="0" type="line"/>
      <point x="442" y="0" type="line"/>
      <point x="475" y="-250" type="line"/>
    </contour>
  </outline>
</glyph>
<glyph name="currency" format="1">
  <advance width="731"/>
  <unicode hex="00A4"/>
  <outline>
    <contour>
      <point x="44.5" y="740" type="line"/>
      <point x="111" y="804.5" type="line"/>
      <point x="205" y="701" type="line"/>
      <point x="248" y="737"/>
      <point x="318" y="770"/>
      <point x="366.5" y="770" type="curve" smooth="yes"/>
      <point x="420.5" y="770"/>
      <point x="492.5" y="739"/>
      <point x="532.5" y="709.5" type="curve"/>
      <point x="627" y="806.5" type="line"/>
      <point x="684.5" y="736" type="line"/>
      <point x="585.5" y="646" type="line"/>
      <point x="607" y="609"/>
      <point x="630" y="538.5"/>
      <point x="630" y="492" type="curve" smooth="yes"/>
      <point x="630" y="441.5"/>
      <point x="605.5" y="371.5"/>
      <point x="578.5" y="334.5" type="curve"/>
      <point x="687" y="232" type="line"/>
      <point x="619" y="168" type="line"/>
      <point x="523" y="273.5" type="line"/>
      <point x="477" y="246"/>
      <point x="406" y="218.5"/>
      <point x="359.5" y="218.5" type="curve" smooth="yes"/>
      <point x="319.5" y="218.5"/>
      <point x="257.5" y="242.5"/>
      <point x="216.5" y="267.5" type="curve"/>
      <point x="123" y="163" type="line"/>
      <point x="57" y="230" type="line"/>
      <point x="156.5" y="324.5" type="line"/>
      <point x="129.5" y="365.5"/>
      <point x="103.5" y="437"/>
      <point x="103.5" y="490" type="curve" smooth="yes"/>
      <point x="103.5" y="536"/>
      <point x="127.5" y="601.5"/>
      <point x="151" y="637.5" type="curve"/>
    </contour>
    <contour>
      <point x="193" y="495" type="curve" smooth="yes"/>
      <point x="193" y="379"/>
      <point x="262" y="300.5"/>
      <point x="363.5" y="300.5" type="curve" smooth="yes"/>
      <point x="469.5" y="300.5"/>
      <point x="540.5" y="377"/>
      <point x="540.5" y="488" type="curve" smooth="yes"/>
      <point x="540.5" y="607"/>
      <point x="469.5" y="685"/>
      <point x="362" y="685" type="curve" smooth="yes"/>
      <point x="260.5" y="685"/>
      <point x="193" y="608"/>
    </contour>
  </outline>
</glyph>
<glyph name="brokenbar" format="1">
  <advance width="275"/>
  <unicode hex="00A6"/>
  <outline>
    <contour>
      <point x="91" y="-370" type="line"/>
      <point x="91" y="418.5" type="line"/>
      <point x="185" y="410.5" type="line"/>
      <point x="185" y="-380" type="line"/>
    </contour>
    <contour>
      <point x="91" y="537.5" type="line"/>
      <point x="91" y="1256.5" type="line"/>
      <point x="184" y="1248" type="line"/>
      <point x="181.5" y="529" type="line"/>
    </contour>
  </outline>
</glyph>
<glyph name="section" format="1">
  <advance width="855"/>
  <unicode hex="00A7"/>
  <outline>
    <contour>
      <point x="49" y="-237.5" type="curve"/>
      <point x="70" y="38.5" type="line"/>
      <point x="145.5" y="29" type="line"/>
      <point x="178" y="-175.5" type="line"/>
      <point x="218.5" y="-247.5"/>
      <point x="316.5" y="-299.5"/>
      <point x="419.5" y="-299.5" type="curve" smooth="yes"/>
      <point x="534" y="-299.5"/>
      <point x="658.5" y="-230"/>
      <point x="658.5" y="-81.5" type="curve" smooth="yes"/>
      <point x="658.5" y="192"/>
      <point x="72.5" y="224"/>
      <point x="91" y="576.5" type="curve"/>
      <point x="438" y="369.5" type="line" smooth="yes"/>
      <point x="605" y="271.5"/>
      <point x="804.5" y="181"/>
      <point x="804.5" y="-25" type="curve" smooth="yes"/>
      <point x="804.5" y="-234.5"/>
      <point x="620.5" y="-380.5"/>
      <point x="382.5" y="-380.5" type="curve" smooth="yes"/>
      <point x="238.5" y="-380.5"/>
      <point x="113" y="-316.5"/>
    </contour>
    <contour>
      <point x="86.5" y="937.5" type="curve" smooth="yes"/>
      <point x="86.5" y="1150.5"/>
      <point x="267.5" y="1270"/>
      <point x="446" y="1270" type="curve" smooth="yes"/>
      <point x="554" y="1270"/>
      <point x="660.5" y="1235.5"/>
      <point x="733.5" y="1165" type="curve"/>
      <point x="733.5" y="1161"/>
      <point x="706" y="869"/>
      <point x="706" y="869" type="curve"/>
      <point x="633.5" y="878.5" type="line"/>
      <point x="607" y="1095.5" type="line"/>
      <point x="580" y="1146.5"/>
      <point x="498" y="1199.5"/>
      <point x="417" y="1199.5" type="curve" smooth="yes"/>
      <point x="311" y="1199.5"/>
      <point x="221" y="1131.5"/>
      <point x="221" y="1000.5" type="curve" smooth="yes"/>
      <point x="221" y="697.5"/>
      <point x="823.5" y="682"/>
      <point x="803.5" y="317.5" type="curve"/>
      <point x="426" y="545.5" type="line" smooth="yes"/>
      <point x="268" y="641"/>
      <point x="86.5" y="735"/>
    </contour>
  </outline>
</glyph>
<glyph name="ordfeminine" format="1">
  <advance width="748"/>
  <unicode hex="00AA"/>
  <outline>
    <contour>
      <point x="89.5" y="689.5" type="curve" smooth="yes"/>
      <point x="89.5" y="813.5"/>
      <point x="190.5" y="942"/>
      <point x="460" y="949.5" type="curve"/>
      <point x="460" y="980" type="line" smooth="yes"/>
      <point x="460" y="1117.5"/>
      <point x="441" y="1202.5"/>
      <point x="328.5" y="1202.5" type="curve" smooth="yes"/>
      <point x="249" y="1202.5"/>
      <point x="239" y="1139.5"/>
      <point x="227" y="1023" type="curve"/>
      <point x="170" y="1019"/>
      <point x="117.5" y="1050"/>
      <point x="117.5" y="1111" type="curve"/>
      <point x="117.5" y="1198.5"/>
      <point x="264.5" y="1268"/>
      <point x="379" y="1268" type="curve" smooth="yes"/>
      <point x="516.5" y="1268"/>
      <point x="583" y="1191"/>
      <point x="583" y="1022" type="curve" smooth="yes"/>
      <point x="583" y="756" type="line" smooth="yes"/>
      <point x="583" y="682"/>
      <point x="585" y="644"/>
      <point x="657.5" y="631.5" type="curve" smooth="yes"/>
      <point x="705.5" y="622.5" type="line"/>
      <point x="698" y="574.5" type="line"/>
      <point x="669.5" y="552.5"/>
      <point x="641.5" y="543"/>
      <point x="599.5" y="543" type="curve" smooth="yes"/>
      <point x="517" y="543"/>
      <point x="474" y="598"/>
      <point x="474" y="650.5" type="curve" smooth="yes"/>
      <point x="474" y="662" type="line"/>
      <point x="467" y="662" type="line"/>
      <point x="446.5" y="616.5"/>
      <point x="380.5" y="537.5"/>
      <point x="255.5" y="537.5" type="curve" smooth="yes"/>
      <point x="168.5" y="537.5"/>
      <point x="89.5" y="591.5"/>
    </contour>
    <contour>
      <point x="221.5" y="725" type="curve" smooth="yes"/>
      <point x="221.5" y="672"/>
      <point x="246" y="624.5"/>
      <point x="312.5" y="624.5" type="curve" smooth="yes"/>
      <point x="381" y="624.5"/>
      <point x="427.5" y="668"/>
      <point x="460" y="714.5" type="curve"/>
      <point x="460" y="900" type="line"/>
      <point x="304" y="875"/>
      <point x="221.5" y="827"/>
    </contour>
  </outline>
</glyph>
<glyph name="guillemotleft" format="1">
  <advance width="643"/>
  <unicode hex="00AB"/>
  <outline>
    <contour>
      <point x="22" y="469" type="line"/>
      <point x="290.5" y="821" type="line"/>
      <point x="326" y="773.5" type="line"/>
      <point x="150" y="461.5" type="line"/>
      <point x="327" y="128.5" type="line"/>
      <point x="285" y="77.5" type="line"/>
      <point x="24" y="449" type="line"/>
    </contour>
    <contour>
      <point x="269" y="469" type="line"/>
      <point x="537" y="821" type="line"/>
      <point x="573.5" y="773.5" type="line"/>
      <point x="397" y="461.5" type="line"/>
      <point x="574.5" y="128.5" type="line"/>
      <point x="532.5" y="77.5" type="line"/>
      <point x="271" y="449" type="line"/>
    </contour>
  </outline>
</glyph>
<glyph name="logicalnot" format="1">
  <advance width="894"/>
  <unicode hex="00AC"/>
  <outline>
    <contour>
      <point x="64" y="584" type="line"/>
      <point x="76" y="663.5" type="line"/>
      <point x="821" y="663.5" type="line"/>
      <point x="822" y="351" type="line"/>
      <point x="733" y="332.5" type="line"/>
      <point x="733" y="584" type="line"/>
    </contour>
  </outline>
</glyph>
<glyph name="softhyphen" format="1">
  <advance width="559"/>
  <unicode hex="00AD"/>
  <outline>
    <contour>
      <point x="73.5" y="420.5" type="line"/>
      <point x="81" y="509" type="line"/>
      <point x="489.5" y="569.5" type="line"/>
      <point x="480.5" y="480" type="line"/>
    </contour>
  </outline>
</glyph>
<glyph name="registered" format="1">
  <advance width="1156"/>
  <unicode hex="00AE"/>
  <outline>
    <contour>
      <point x="110.5" y="1022" type="curve" smooth="yes"/>
      <point x="110.5" y="1338"/>
      <point x="321.5" y="1520"/>
      <point x="585.5" y="1520" type="curve" smooth="yes"/>
      <point x="861.5" y="1520"/>
      <point x="1077.5" y="1344"/>
      <point x="1077.5" y="1026" type="curve" smooth="yes"/>
      <point x="1077.5" y="722"/>
      <point x="849.5" y="542"/>
      <point x="575.5" y="542" type="curve" smooth="yes"/>
      <point x="317.5" y="542"/>
      <point x="110.5" y="730"/>
    </contour>
    <contour>
      <point x="182" y="1036" type="curve" smooth="yes"/>
      <point x="182" y="776"/>
      <point x="349.5" y="604"/>
      <point x="583.5" y="604" type="curve" smooth="yes"/>
      <point x="814.5" y="604"/>
      <point x="1005" y="768"/>
      <point x="1005" y="1016" type="curve" smooth="yes"/>
      <point x="1005" y="1290"/>
      <point x="822.5" y="1456.5"/>
      <point x="585.5" y="1459" type="curve" smooth="yes"/>
      <point x="363.5" y="1461"/>
      <point x="182" y="1318"/>
    </contour>
    <contour>
      <point x="331" y="774" type="line"/>
      <point x="336" y="813.5" type="line"/>
      <point x="411.5" y="834" type="line"/>
      <point x="411.5" y="1266" type="line"/>
      <point x="335" y="1279.5" type="line"/>
      <point x="339.5" y="1317.5" type="line"/>
      <point x="406" y="1328"/>
      <point x="500.5" y="1338"/>
      <point x="567.5" y="1338" type="curve" smooth="yes"/>
      <point x="693" y="1338"/>
      <point x="786.5" y="1298"/>
      <point x="786.5" y="1198.5" type="curve" smooth="yes"/>
      <point x="786.5" y="1133"/>
      <point x="736" y="1068.5"/>
      <point x="655.5" y="1034" type="curve"/>
      <point x="655" y="1032.5" type="line"/>
      <point x="738.5" y="925.5" type="line" smooth="yes"/>
      <point x="796.5" y="850.5"/>
      <point x="815.5" y="838.5"/>
      <point x="855.5" y="821.5" type="curve" smooth="yes"/>
      <point x="875" y="814" type="line"/>
      <point x="868" y="773.5" type="line"/>
      <point x="849" y="767"/>
      <point x="830.5" y="764.5"/>
      <point x="806" y="764.5" type="curve" smooth="yes"/>
      <point x="734.5" y="764.5"/>
      <point x="692.5" y="805.5"/>
      <point x="642" y="899" type="curve" smooth="yes"/>
      <point x="580.5" y="1010.5" type="line"/>
      <point x="508" y="1010.5" type="line"/>
      <point x="508" y="834.5" type="line"/>
      <point x="592.5" y="817" type="line"/>
      <point x="587.5" y="774" type="line"/>
    </contour>
    <contour>
      <point x="508" y="1061.5" type="line"/>
      <point x="598.5" y="1061.5" type="line"/>
      <point x="644.5" y="1086.5"/>
      <point x="683" y="1123.5"/>
      <point x="683" y="1180.5" type="curve" smooth="yes"/>
      <point x="683" y="1252.5"/>
      <point x="635.5" y="1285.5"/>
      <point x="552" y="1285.5" type="curve" smooth="yes"/>
      <point x="531" y="1285.5"/>
      <point x="509.5" y="1283.5"/>
      <point x="508" y="1283.5" type="curve"/>
    </contour>
  </outline>
</glyph>
<glyph name="macron" format="1">
  <advance width="623"/>
  <unicode hex="00AF"/>
  <outline>
    <contour>
      <point x="86" y="1379.5" type="line"/>
      <point x="97" y="1455.5" type="line"/>
      <point x="538" y="1455.5" type="line"/>
      <point x="527.5" y="1379.5" type="line"/>
    </contour>
  </outline>
</glyph>
<glyph name="degree" format="1">
  <advance width="453"/>
  <unicode hex="00B0"/>
  <outline>
    <contour>
      <point x="45.5" y="1107" type="curve" smooth="yes"/>
      <point x="45.5" y="1210"/>
      <point x="130.5" y="1304"/>
      <point x="238.5" y="1304" type="curve" smooth="yes"/>
      <point x="354.5" y="1304"/>
      <point x="409.5" y="1237"/>
      <point x="409.5" y="1128" type="curve" smooth="yes"/>
      <point x="409.5" y="1013"/>
      <point x="320.5" y="928"/>
      <point x="214.5" y="928" type="curve" smooth="yes"/>
      <point x="112.5" y="928"/>
      <point x="45.5" y="990"/>
    </contour>
    <contour>
      <point x="121.5" y="1129" type="curve" smooth="yes"/>
      <point x="121.5" y="1047"/>
      <point x="162" y="981"/>
      <point x="231.5" y="981" type="curve" smooth="yes"/>
      <point x="288.5" y="981"/>
      <point x="332.5" y="1027.5"/>
      <point x="332.5" y="1105" type="curve" smooth="yes"/>
      <point x="332.5" y="1183.5"/>
      <point x="291" y="1251"/>
      <point x="223.5" y="1251" type="curve" smooth="yes"/>
      <point x="157" y="1251"/>
      <point x="121.5" y="1198.5"/>
    </contour>
  </outline>
</glyph>
<glyph name="acute" format="1">
  <advance width="452"/>
  <unicode hex="00B4"/>
  <outline>
    <contour>
      <point x="125.5" y="1375" type="line"/>
      <point x="253" y="1706" type="line"/>
      <point x="356.5" y="1667" type="line"/>
      <point x="173.5" y="1346" type="line"/>
    </contour>
  </outline>
</glyph>
<glyph name="micro" format="1">
  <advance width="997"/>
  <unicode hex="00B5"/>
  <outline>
    <contour>
      <point x="35" y="803" type="line"/>
      <point x="43" y="856.5" type="line"/>
      <point x="292.5" y="877.5" type="line"/>
      <point x="309" y="860" type="line"/>
      <point x="309" y="315.5" type="line" smooth="yes"/>
      <point x="309" y="151.5"/>
      <point x="373.5" y="82"/>
      <point x="479" y="82" type="curve" smooth="yes"/>
      <point x="569.5" y="82"/>
      <point x="638.5" y="137"/>
      <point x="687" y="185.5" type="curve"/>
      <point x="687" y="758.5" type="line"/>
      <point x="528.5" y="794.5" type="line"/>
      <point x="534.5" y="853" type="line"/>
      <point x="800.5" y="877.5" type="line"/>
      <point x="814.5" y="860" type="line"/>
      <point x="814.5" y="221.5" type="line" smooth="yes"/>
      <point x="814.5" y="119.5"/>
      <point x="838" y="83.5"/>
      <point x="914.5" y="68.5" type="curve" smooth="yes"/>
      <point x="968" y="57" type="line"/>
      <point x="961" y="-1.5" type="line"/>
      <point x="920" y="-13.5"/>
      <point x="884" y="-21"/>
      <point x="833.5" y="-21" type="curve" smooth="yes"/>
      <point x="742.5" y="-21"/>
      <point x="698" y="42.5"/>
      <point x="698" y="119" type="curve" smooth="yes"/>
      <point x="698" y="131" type="line"/>
      <point x="687" y="131" type="line"/>
      <point x="607.5" y="30"/>
      <point x="508.5" y="-24"/>
      <point x="408.5" y="-24" type="curve" smooth="yes"/>
      <point x="344" y="-24"/>
      <point x="285" y="-1.5"/>
      <point x="254.5" y="48.5" type="curve"/>
      <point x="248" y="48.5" type="line"/>
      <point x="251" y="30.5"/>
      <point x="253.5" y="-21.5"/>
      <point x="257" y="-85.5" type="curve" smooth="yes"/>
      <point x="271.5" y="-388.5" type="line"/>
      <point x="160" y="-362.5" type="line"/>
      <point x="162" y="-335.5"/>
      <point x="181" y="181"/>
      <point x="181" y="494.5" type="curve" smooth="yes"/>
      <point x="181" y="761" type="line"/>
    </contour>
  </outline>
</glyph>
<glyph name="periodcentered" format="1">
  <advance width="328"/>
  <unicode hex="00B7"/>
  <outline>
    <contour>
      <point x="73" y="503" type="curve" smooth="yes"/>
      <point x="73" y="566.5"/>
      <point x="111" y="608.5"/>
      <point x="164.5" y="608.5" type="curve" smooth="yes"/>
      <point x="219" y="608.5"/>
      <point x="257" y="567"/>
      <point x="257" y="503" type="curve" smooth="yes"/>
      <point x="257" y="436.5"/>
      <point x="221" y="391"/>
      <point x="165" y="391" type="curve" smooth="yes"/>
      <point x="109" y="391"/>
      <point x="73" y="437.5"/>
    </contour>
  </outline>
</glyph>
<glyph name="cedilla" format="1">
  <advance width="334"/>
  <unicode hex="00B8"/>
  <outline>
    <contour>
      <point x="59" y="-339" type="line"/>
      <point x="116.5" y="-319.5"/>
      <point x="161" y="-277"/>
      <point x="161" y="-247.5" type="curve" smooth="yes"/>
      <point x="161" y="-198"/>
      <point x="117" y="-163"/>
      <point x="81" y="-128" type="curve"/>
      <point x="172.5" y="3" type="line"/>
      <point x="239" y="3" type="line"/>
      <point x="185" y="-76" type="line"/>
      <point x="222" y="-109"/>
      <point x="274" y="-160.5"/>
      <point x="274" y="-227" type="curve" smooth="yes"/>
      <point x="274" y="-306"/>
      <point x="191" y="-354.5"/>
      <point x="74" y="-389.5" type="curve"/>
    </contour>
  </outline>
</glyph>
<glyph name="one.superior" format="1">
  <advance width="519"/>
  <unicode hex="00B9"/>
  <outline>
    <contour>
      <point x="37" y="548.5" type="line"/>
      <point x="39.5" y="608" type="line"/>
      <point x="198.5" y="631" type="line"/>
      <point x="198.5" y="1161" type="line"/>
      <point x="48" y="1161" type="line"/>
      <point x="51.5" y="1221.5" type="line"/>
      <point x="320.5" y="1258.5" type="line"/>
      <point x="339" y="1258.5" type="line"/>
      <point x="339" y="628.5" type="line"/>
      <point x="494.5" y="617.5" type="line"/>
      <point x="489" y="548.5" type="line"/>
    </contour>
  </outline>
</glyph>
<glyph name="ordmasculine" format="1">
  <advance width="832"/>
  <unicode hex="00BA"/>
  <outline>
    <contour>
      <point x="84" y="886" type="curve" smooth="yes"/>
      <point x="84" y="1128.5"/>
      <point x="249" y="1270.5"/>
      <point x="433.5" y="1270.5" type="curve" smooth="yes"/>
      <point x="625" y="1270.5"/>
      <point x="748" y="1112.5"/>
      <point x="748" y="908.5" type="curve" smooth="yes"/>
      <point x="748" y="685"/>
      <point x="594" y="536"/>
      <point x="413" y="536" type="curve" smooth="yes"/>
      <point x="216.5" y="536"/>
      <point x="84" y="678"/>
    </contour>
    <contour>
      <point x="219" y="943.5" type="curve" smooth="yes"/>
      <point x="219" y="760.5"/>
      <point x="283" y="604"/>
      <point x="441.5" y="604" type="curve" smooth="yes"/>
      <point x="560" y="604"/>
      <point x="613" y="722"/>
      <point x="613" y="861.5" type="curve" smooth="yes"/>
      <point x="613" y="1027.5"/>
      <point x="552.5" y="1198.5"/>
      <point x="398" y="1198.5" type="curve" smooth="yes"/>
      <point x="273.5" y="1198.5"/>
      <point x="219" y="1084"/>
    </contour>
  </outline>
</glyph>
<glyph name="AE" format="1">
  <advance width="1740"/>
  <unicode hex="00C6"/>
  <outline>
    <contour>
      <point x="49" y="2" type="line"/>
      <point x="57" y="60" type="line"/>
      <point x="196" y="102" type="line"/>
      <point x="840" y="1154" type="line"/>
      <point x="616" y="1187" type="line"/>
      <point x="625" y="1244" type="line"/>
      <point x="1649" y="1244" type="line"/>
      <point x="1617" y="926" type="line"/>
      <point x="1552" y="936" type="line"/>
      <point x="1521" y="1173" type="line"/>
      <point x="1035" y="1173" type="line"/>
      <point x="1035" y="669" type="line"/>
      <point x="1334" y="669" type="line"/>
      <point x="1374" y="801" type="line"/>
      <point x="1446" y="808" type="line"/>
      <point x="1412" y="421" type="line"/>
      <point x="1346" y="409" type="line"/>
      <point x="1321" y="596" type="line"/>
      <point x="1035" y="596" type="line"/>
      <point x="1035" y="75" type="line"/>
      <point x="1549" y="75" type="line"/>
      <point x="1635" y="326" type="line"/>
      <point x="1695" y="313" type="line"/>
      <point x="1665" y="0" type="line"/>
      <point x="703" y="0" type="line"/>
      <point x="710" y="58" type="line"/>
      <point x="890" y="96" type="line"/>
      <point x="890" y="472" type="line"/>
      <point x="535" y="472" type="line"/>
      <point x="308" y="96" type="line"/>
      <point x="494" y="66" type="line"/>
      <point x="484" y="2" type="line"/>
    </contour>
    <contour>
      <point x="581" y="553" type="line"/>
      <point x="891" y="553" type="line"/>
      <point x="894" y="1075" type="line"/>
    </contour>
  </outline>
</glyph>
<glyph name="multiply" format="1">
  <advance width="558"/>
  <unicode hex="00D7"/>
  <outline>
    <contour>
      <point x="51" y="302" type="line"/>
      <point x="221" y="462" type="line"/>
      <point x="52" y="625" type="line"/>
      <point x="123" y="681" type="line"/>
      <point x="281" y="514" type="line"/>
      <point x="450" y="686" type="line"/>
      <point x="506" y="615" type="line"/>
      <point x="338" y="458" type="line"/>
      <point x="511" y="292" type="line"/>
      <point x="441" y="236" type="line"/>
      <point x="277" y="407" type="line"/>
      <point x="108" y="232" type="line"/>
    </contour>
  </outline>
</glyph>
<glyph name="Oslash" format="1">
  <advance width="1264"/>
  <unicode hex="00D8"/>
  <outline>
    <contour>
      <point x="108" y="8" type="line"/>
      <point x="247" y="194" type="line"/>
      <point x="286" y="216" type="line"/>
      <point x="938" y="1076" type="line"/>
      <point x="947" y="1113" type="line"/>
      <point x="1037" y="1233" type="line"/>
      <point x="1158" y="1220" type="line"/>
      <point x="1034" y="1070" type="line"/>
      <point x="986" y="1033" type="line"/>
      <point x="321" y="155" type="line"/>
      <point x="315" y="125" type="line"/>
      <point x="224" y="-5" type="line"/>
    </contour>
    <contour>
      <point x="215" y="678" type="curve" smooth="yes"/>
      <point x="215" y="346"/>
      <point x="358" y="58"/>
      <point x="647" y="58" type="curve" smooth="yes"/>
      <point x="944" y="58"/>
      <point x="1051" y="331"/>
      <point x="1051" y="574" type="curve" smooth="yes"/>
      <point x="1051" y="906"/>
      <point x="906" y="1197"/>
      <point x="619" y="1197" type="curve" smooth="yes"/>
      <point x="322" y="1197"/>
      <point x="215" y="939"/>
    </contour>
    <contour>
      <point x="50" y="620" type="curve" smooth="yes"/>
      <point x="50" y="1005"/>
      <point x="287" y="1274"/>
      <point x="668" y="1274" type="curve" smooth="yes"/>
      <point x="1020" y="1274"/>
      <point x="1216" y="988"/>
      <point x="1216" y="624" type="curve" smooth="yes"/>
      <point x="1216" y="299"/>
      <point x="1009" y="-27"/>
      <point x="598" y="-27" type="curve" smooth="yes"/>
      <point x="267" y="-27"/>
      <point x="50" y="263"/>
    </contour>
  </outline>
</glyph>
<glyph name="Thorn" format="1">
  <advance width="1045"/>
  <unicode hex="00DE"/>
  <outline>
    <contour>
      <point x="47" y="1187" type="line"/>
      <point x="55" y="1244" type="line"/>
      <point x="556" y="1244" type="line"/>
      <point x="548" y="1187" type="line"/>
      <point x="375" y="1156" type="line"/>
      <point x="375" y="1021" type="line"/>
      <point x="416" y="1023"/>
      <point x="465" y="1024"/>
      <point x="506" y="1024" type="curve" smooth="yes"/>
      <point x="771" y="1024"/>
      <point x="999" y="933"/>
      <point x="999" y="660" type="curve" smooth="yes"/>
      <point x="999" y="416"/>
      <point x="782" y="254"/>
      <point x="535" y="254" type="curve" smooth="yes"/>
      <point x="508" y="254"/>
      <point x="480" y="256"/>
      <point x="451" y="259" type="curve"/>
      <point x="447" y="271"/>
      <point x="437" y="302"/>
      <point x="437" y="322" type="curve"/>
      <point x="446" y="322"/>
      <point x="482" y="323"/>
      <point x="490" y="323" type="curve"/>
      <point x="731" y="329"/>
      <point x="834" y="454"/>
      <point x="834" y="632" type="curve" smooth="yes"/>
      <point x="834" y="803"/>
      <point x="722" y="953"/>
      <point x="482" y="953" type="curve" smooth="yes"/>
      <point x="441" y="953"/>
      <point x="375" y="946"/>
      <point x="375" y="946" type="curve"/>
      <point x="375" y="94" type="line"/>
      <point x="610" y="64" type="line"/>
      <point x="599" y="0" type="line"/>
      <point x="53" y="0" type="line"/>
      <point x="60" y="57" type="line"/>
      <point x="225" y="96" type="line"/>
      <point x="225" y="1154" type="line"/>
    </contour>
  </outline>
</glyph>
<glyph name="germandbls" format="1">
  <advance width="1069"/>
  <unicode hex="00DF"/>
  <outline>
    <contour>
      <point x="19.5" y="0" type="line"/>
      <point x="26" y="57.5" type="line"/>
      <point x="168" y="91" type="line"/>
      <point x="168" y="538.5" type="line" smooth="yes"/>
      <point x="168" y="821.395"/>
      <point x="366.358" y="941.35"/>
      <point x="649.5" y="941.35" type="curve" smooth="yes"/>
      <point x="803.76" y="941.35"/>
      <point x="1000.5" y="898.401"/>
      <point x="1000.5" y="776" type="curve" smooth="yes"/>
      <point x="1000.5" y="714.5"/>
      <point x="958" y="684"/>
      <point x="896.5" y="671" type="curve"/>
      <point x="875.5" y="761.5"/>
      <point x="830" y="863"/>
      <point x="715" y="863" type="curve" smooth="yes"/>
      <point x="640.5" y="863"/>
      <point x="577.5" y="818.5"/>
      <point x="577.5" y="728" type="curve" smooth="yes"/>
      <point x="577.5" y="498"/>
      <point x="1044" y="493.5"/>
      <point x="1044" y="240" type="curve" smooth="yes"/>
      <point x="1044" y="84.5"/>
      <point x="898.5" y="-25"/>
      <point x="708" y="-25" type="curve" smooth="yes"/>
      <point x="577" y="-25"/>
      <point x="482" y="7.5"/>
      <point x="430" y="54" type="curve"/>
      <point x="461" y="301.5" type="line"/>
      <point x="536.5" y="290.5" type="line"/>
      <point x="554" y="125.5" type="line"/>
      <point x="590.5" y="82"/>
      <point x="637.5" y="56"/>
      <point x="741.5" y="56" type="curve" smooth="yes"/>
      <point x="819.5" y="56"/>
      <point x="902.5" y="95.5"/>
      <point x="902.5" y="179.5" type="curve" smooth="yes"/>
      <point x="902.5" y="372.5"/>
      <point x="449.5" y="381"/>
      <point x="449" y="653" type="curve" smooth="yes"/>
      <point x="449" y="778.5"/>
      <point x="529.5" y="854.5"/>
      <point x="605" y="879.5" type="curve"/>
      <point x="606" y="883" type="line"/>
      <point x="412.683" y="876.788"/>
      <point x="314" y="796.495"/>
      <point x="314" y="561.5" type="curve" smooth="yes"/>
      <point x="314" y="0" type="line"/>
    </contour>
  </outline>
</glyph>
<glyph name="aacute" format="1">
  <advance width="944"/>
  <unicode hex="00E1"/>
  <outline>
    <contour>
      <point x="22" y="0" type="line"/>
      <point x="29" y="58" type="line"/>
      <point x="144.5" y="100.5" type="line"/>
      <point x="465" y="918.5" type="line"/>
      <point x="567" y="941" type="line"/>
      <point x="869.5" y="95" type="line"/>
      <point x="974" y="63.5" type="line"/>
      <point x="965.5" y="0.5" type="line"/>
      <point x="568.5" y="0.5" type="line"/>
      <point x="579" y="58.5" type="line"/>
      <point x="712.5" y="97" type="line"/>
      <point x="484" y="747" type="line"/>
      <point x="250.5" y="94.5" type="line"/>
      <point x="400.5" y="63" type="line"/>
      <point x="390.5" y="0" type="line"/>
    </contour>
    <contour>
      <point x="288.5" y="308" type="line"/>
      <point x="317.5" y="387" type="line"/>
      <point x="675" y="387" type="line"/>
      <point x="699" y="308" type="line"/>
    </contour>
    <contour>
      <point x="479" y="1029.85" type="line"/>
      <point x="606.5" y="1360.85" type="line"/>
      <point x="710" y="1321.85" type="line"/>
      <point x="527" y="1000.85" type="line"/>
    </contour>
  </outline>
</glyph>
<glyph name="atilde" format="1">
  <advance width="1031"/>
  <unicode hex="00E3"/>
  <outline>
    <contour>
      <point x="39" y="0" type="line"/>
      <point x="46" y="58" type="line"/>
      <point x="161.5" y="100.5" type="line"/>
      <point x="482" y="918.5" type="line"/>
      <point x="584" y="941" type="line"/>
      <point x="886.5" y="95" type="line"/>
      <point x="991" y="63.5" type="line"/>
      <point x="982.5" y="0.5" type="line"/>
      <point x="585.5" y="0.5" type="line"/>
      <point x="596" y="58.5" type="line"/>
      <point x="729.5" y="97" type="line"/>
      <point x="501" y="747" type="line"/>
      <point x="267.5" y="94.5" type="line"/>
      <point x="417.5" y="63" type="line"/>
      <point x="407.5" y="0" type="line"/>
    </contour>
    <contour>
      <point x="305.5" y="308" type="line"/>
      <point x="334.5" y="387" type="line"/>
      <point x="692" y="387" type="line"/>
      <point x="716" y="308" type="line"/>
    </contour>
    <contour>
      <point x="319" y="1048" type="line"/>
      <point x="335" y="1128.5"/>
      <point x="403" y="1211"/>
      <point x="487" y="1185" type="curve" smooth="yes"/>
      <point x="636" y="1150" type="line" smooth="yes"/>
      <point x="682.5" y="1129.5"/>
      <point x="725.5" y="1140"/>
      <point x="747" y="1200.5" type="curve"/>
      <point x="787.5" y="1195.5" type="line"/>
      <point x="773" y="1123.5"/>
      <point x="710" y="1026"/>
      <point x="615.5" y="1058" type="curve" smooth="yes"/>
      <point x="467" y="1094" type="line" smooth="yes"/>
      <point x="420" y="1114"/>
      <point x="377.5" y="1102.5"/>
      <point x="354.5" y="1039.5" type="curve"/>
    </contour>
  </outline>
</glyph>
<glyph name="eacute" format="1">
  <advance width="771"/>
  <unicode hex="00E9"/>
  <outline>
    <contour>
      <point x="28" y="861.5" type="line"/>
      <point x="37" y="920.5" type="line"/>
      <point x="802" y="920.5" type="line"/>
      <point x="776" y="649.5" type="line"/>
      <point x="703.5" y="659" type="line"/>
      <point x="683.5" y="849" type="line"/>
      <point x="327.5" y="849" type="line"/>
      <point x="327.5" y="490" type="line"/>
      <point x="558" y="490" type="line"/>
      <point x="583" y="574.5" type="line"/>
      <point x="659" y="585.5" type="line"/>
      <point x="625.5" y="301.5" type="line"/>
      <point x="554.5" y="290.5" type="line"/>
      <point x="545.5" y="416.5" type="line"/>
      <point x="327.5" y="416.5" type="line"/>
      <point x="327.5" y="75" type="line"/>
      <point x="713.5" y="75" type="line"/>
      <point x="774" y="274.5" type="line"/>
      <point x="841.5" y="263" type="line"/>
      <point x="821.5" y="0" type="line"/>
      <point x="33" y="0" type="line"/>
      <point x="40" y="58" type="line"/>
      <point x="178.5" y="96.5" type="line"/>
      <point x="178.5" y="827" type="line"/>
    </contour>
    <contour>
      <point x="398.5" y="1028" type="line"/>
      <point x="526" y="1359" type="line"/>
      <point x="629.5" y="1320" type="line"/>
      <point x="446.5" y="999" type="line"/>
    </contour>
  </outline>
</glyph>
<glyph name="edieresis" format="1">
  <advance width="832"/>
  <unicode hex="00EB"/>
  <outline>
    <contour>
      <point x="32" y="861.5" type="line"/>
      <point x="41" y="920.5" type="line"/>
      <point x="806" y="920.5" type="line"/>
      <point x="780" y="649.5" type="line"/>
      <point x="707.5" y="659" type="line"/>
      <point x="687.5" y="849" type="line"/>
      <point x="331.5" y="849" type="line"/>
      <point x="331.5" y="490" type="line"/>
      <point x="562" y="490" type="line"/>
      <point x="587" y="574.5" type="line"/>
      <point x="663" y="585.5" type="line"/>
      <point x="629.5" y="301.5" type="line"/>
      <point x="558.5" y="290.5" type="line"/>
      <point x="549.5" y="416.5" type="line"/>
      <point x="331.5" y="416.5" type="line"/>
      <point x="331.5" y="75" type="line"/>
      <point x="717.5" y="75" type="line"/>
      <point x="778" y="274.5" type="line"/>
      <point x="845.5" y="263" type="line"/>
      <point x="825.5" y="0" type="line"/>
      <point x="37" y="0" type="line"/>
      <point x="44" y="58" type="line"/>
      <point x="182.5" y="96.5" type="line"/>
      <point x="182.5" y="827" type="line"/>
    </contour>
    <contour>
      <point x="246.5" y="1084" type="curve" smooth="yes"/>
      <point x="246.5" y="1132.5"/>
      <point x="277" y="1161.5"/>
      <point x="316.5" y="1161.5" type="curve" smooth="yes"/>
      <point x="357" y="1161.5"/>
      <point x="388.5" y="1132.5"/>
      <point x="388.5" y="1084" type="curve" smooth="yes"/>
      <point x="388.5" y="1033"/>
      <point x="360.5" y="1002.5"/>
      <point x="317.5" y="1002.5" type="curve" smooth="yes"/>
      <point x="275" y="1002.5"/>
      <point x="246.5" y="1034"/>
    </contour>
    <contour>
      <point x="515" y="1084" type="curve" smooth="yes"/>
      <point x="515" y="1132.5"/>
      <point x="545" y="1161.5"/>
      <point x="584.5" y="1161.5" type="curve" smooth="yes"/>
      <point x="625" y="1161.5"/>
      <point x="657" y="1132.5"/>
      <point x="657" y="1084" type="curve" smooth="yes"/>
      <point x="657" y="1033"/>
      <point x="628" y="1002.5"/>
      <point x="585" y="1002.5" type="curve" smooth="yes"/>
      <point x="542.5" y="1002.5"/>
      <point x="515" y="1034"/>
    </contour>
  </outline>
</glyph>
<glyph name="igrave" format="1">
  <advance width="543"/>
  <unicode hex="00EC"/>
  <outline>
    <contour>
      <point x="42" y="864.5" type="line"/>
      <point x="50.5" y="922" type="line"/>
      <point x="91" y="922"/>
      <point x="414.5" y="922"/>
      <point x="491" y="922" type="curve"/>
      <point x="482.5" y="864.5" type="line"/>
      <point x="340.5" y="834" type="line"/>
      <point x="340.5" y="89.5" type="line"/>
      <point x="497.5" y="63" type="line"/>
      <point x="488" y="0" type="line"/>
      <point x="50.5" y="0" type="line"/>
      <point x="57" y="58" type="line"/>
      <point x="189.5" y="96.5" type="line"/>
      <point x="189.5" y="831" type="line"/>
    </contour>
    <contour>
      <point x="85" y="1322.05" type="line"/>
      <point x="189.5" y="1359.55" type="line"/>
      <point x="321.5" y="1025.05" type="line"/>
      <point x="270.5" y="994.05" type="line"/>
    </contour>
  </outline>
</glyph>
<glyph name="idieresis" format="1">
  <advance width="543"/>
  <unicode hex="00EF"/>
  <outline>
    <contour>
      <point x="42" y="864.5" type="line"/>
      <point x="50.5" y="922" type="line"/>
      <point x="91" y="922"/>
      <point x="414.5" y="922"/>
      <point x="491" y="922" type="curve"/>
      <point x="482.5" y="864.5" type="line"/>
      <point x="340.5" y="834" type="line"/>
      <point x="340.5" y="89.5" type="line"/>
      <point x="497.5" y="63" type="line"/>
      <point x="488" y="0" type="line"/>
      <point x="50.5" y="0" type="line"/>
      <point x="57" y="58" type="line"/>
      <point x="189.5" y="96.5" type="line"/>
      <point x="189.5" y="831" type="line"/>
    </contour>
    <contour>
      <point x="67" y="1100" type="curve" smooth="yes"/>
      <point x="67" y="1148.5"/>
      <point x="97.5" y="1177.5"/>
      <point x="137" y="1177.5" type="curve" smooth="yes"/>
      <point x="177.5" y="1177.5"/>
      <point x="209" y="1148.5"/>
      <point x="209" y="1100" type="curve" smooth="yes"/>
      <point x="209" y="1049"/>
      <point x="181" y="1018.5"/>
      <point x="138" y="1018.5" type="curve" smooth="yes"/>
      <point x="95.5" y="1018.5"/>
      <point x="67" y="1050"/>
    </contour>
    <contour>
      <point x="335.5" y="1100" type="curve" smooth="yes"/>
      <point x="335.5" y="1148.5"/>
      <point x="365.5" y="1177.5"/>
      <point x="405" y="1177.5" type="curve" smooth="yes"/>
      <point x="445.5" y="1177.5"/>
      <point x="477.5" y="1148.5"/>
      <point x="477.5" y="1100" type="curve" smooth="yes"/>
      <point x="477.5" y="1049"/>
      <point x="448.5" y="1018.5"/>
      <point x="405.5" y="1018.5" type="curve" smooth="yes"/>
      <point x="363" y="1018.5"/>
      <point x="335.5" y="1050"/>
    </contour>
  </outline>
</glyph>
<glyph name="oacute" format="1">
  <advance width="952"/>
  <unicode hex="00F3"/>
  <outline>
    <contour>
      <point x="31" y="444" type="curve" smooth="yes"/>
      <point x="31" y="733"/>
      <point x="220.5" y="940.5"/>
      <point x="525" y="940.5" type="curve" smooth="yes"/>
      <point x="805.5" y="940.5"/>
      <point x="963" y="728"/>
      <point x="963" y="465" type="curve" smooth="yes"/>
      <point x="963" y="219"/>
      <point x="797.5" y="-27"/>
      <point x="470.5" y="-27" type="curve" smooth="yes"/>
      <point x="205" y="-27"/>
      <point x="31" y="183.5"/>
    </contour>
    <contour>
      <point x="189.5" y="497" type="curve" smooth="yes"/>
      <point x="189.5" y="250.5"/>
      <point x="309.5" y="58"/>
      <point x="504.5" y="58" type="curve" smooth="yes"/>
      <point x="722.5" y="58"/>
      <point x="804" y="230"/>
      <point x="804" y="421" type="curve" smooth="yes"/>
      <point x="804" y="653.5"/>
      <point x="692.5" y="864.5"/>
      <point x="487" y="864.5" type="curve" smooth="yes"/>
      <point x="269.5" y="864.5"/>
      <point x="189.5" y="700.5"/>
    </contour>
    <contour>
      <point x="451.029" y="1029.05" type="line"/>
      <point x="578.529" y="1360.05" type="line"/>
      <point x="682.029" y="1321.05" type="line"/>
      <point x="499.029" y="1000.05" type="line"/>
    </contour>
  </outline>
</glyph>
<glyph name="divide" format="1">
  <advance width="930"/>
  <unicode hex="00F7"/>
  <outline>
    <contour>
      <point x="54" y="465" type="line"/>
      <point x="66" y="550.5" type="line"/>
      <point x="878" y="550.5" type="line"/>
      <point x="867" y="465" type="line"/>
    </contour>
    <contour>
      <point x="369" y="226" type="curve" smooth="yes"/>
      <point x="369" y="289.5"/>
      <point x="405" y="329"/>
      <point x="458.5" y="329" type="curve" smooth="yes"/>
      <point x="513" y="329"/>
      <point x="552.5" y="289.5"/>
      <point x="552.5" y="225.5" type="curve" smooth="yes"/>
      <point x="552.5" y="159"/>
      <point x="515.5" y="112"/>
      <point x="459.5" y="112" type="curve" smooth="yes"/>
      <point x="403.5" y="112"/>
      <point x="369" y="160.5"/>
    </contour>
    <contour>
      <point x="369" y="789.5" type="curve" smooth="yes"/>
      <point x="369" y="853"/>
      <point x="405" y="894"/>
      <point x="458.5" y="894" type="curve" smooth="yes"/>
      <point x="513" y="894"/>
      <point x="552.5" y="853"/>
      <point x="552.5" y="789" type="curve" smooth="yes"/>
      <point x="552.5" y="722.5"/>
      <point x="515.5" y="675.5"/>
      <point x="459.5" y="675.5" type="curve" smooth="yes"/>
      <point x="403.5" y="675.5"/>
      <point x="369" y="724"/>
    </contour>
  </outline>
</glyph>
<glyph name="ucircumflex" format="1">
  <advance width="1075"/>
  <unicode hex="00FB"/>
  <outline>
    <contour>
      <point x="47.5" y="864.5" type="line"/>
      <point x="56" y="922" type="line"/>
      <point x="494" y="922" type="line"/>
      <point x="487.5" y="864.5" type="line"/>
      <point x="348.5" y="834" type="line"/>
      <point x="348.5" y="360.5" type="line" smooth="yes"/>
      <point x="348.5" y="144"/>
      <point x="452" y="73.5"/>
      <point x="601.5" y="73.5" type="curve" smooth="yes"/>
      <point x="756" y="73.5"/>
      <point x="848" y="137"/>
      <point x="848.5" y="333.5" type="curve" smooth="yes"/>
      <point x="850" y="831" type="line"/>
      <point x="695.5" y="864.5" type="line"/>
      <point x="703" y="922" type="line"/>
      <point x="1094.5" y="922" type="line"/>
      <point x="1085" y="864.5" type="line"/>
      <point x="949" y="834" type="line"/>
      <point x="945" y="360.5" type="line" smooth="yes"/>
      <point x="942.5" y="96.5"/>
      <point x="814.5" y="-27"/>
      <point x="560" y="-27" type="curve" smooth="yes"/>
      <point x="378" y="-27"/>
      <point x="200" y="40.5"/>
      <point x="200" y="333.5" type="curve" smooth="yes"/>
      <point x="200" y="831" type="line"/>
    </contour>
    <contour>
      <point x="383.5" y="1030" type="line"/>
      <point x="551" y="1210" type="line"/>
      <point x="605.5" y="1224" type="line"/>
      <point x="784" y="1038" type="line"/>
      <point x="743.5" y="1001" type="line"/>
      <point x="571.5" y="1123.5" type="line"/>
      <point x="561.5" y="1123.5" type="line"/>
      <point x="413.5" y="1000" type="line"/>
    </contour>
  </outline>
</glyph>
<glyph name="udieresis" format="1">
  <advance width="1075"/>
  <unicode hex="00FC"/>
  <outline>
    <contour>
      <point x="47.5" y="864.5" type="line"/>
      <point x="56" y="922" type="line"/>
      <point x="494" y="922" type="line"/>
      <point x="487.5" y="864.5" type="line"/>
      <point x="348.5" y="834" type="line"/>
      <point x="348.5" y="360.5" type="line" smooth="yes"/>
      <point x="348.5" y="144"/>
      <point x="452" y="73.5"/>
      <point x="601.5" y="73.5" type="curve" smooth="yes"/>
      <point x="756" y="73.5"/>
      <point x="848" y="137"/>
      <point x="848.5" y="333.5" type="curve" smooth="yes"/>
      <point x="850" y="831" type="line"/>
      <point x="695.5" y="864.5" type="line"/>
      <point x="703" y="922" type="line"/>
      <point x="1094.5" y="922" type="line"/>
      <point x="1085" y="864.5" type="line"/>
      <point x="949" y="834" type="line"/>
      <point x="945" y="360.5" type="line" smooth="yes"/>
      <point x="942.5" y="96.5"/>
      <point x="814.5" y="-27"/>
      <point x="560" y="-27" type="curve" smooth="yes"/>
      <point x="378" y="-27"/>
      <point x="200" y="40.5"/>
      <point x="200" y="333.5" type="curve" smooth="yes"/>
      <point x="200" y="831" type="line"/>
    </contour>
    <contour>
      <point x="381" y="1117" type="curve" smooth="yes"/>
      <point x="381" y="1165.5"/>
      <point x="411.5" y="1194.5"/>
      <point x="451" y="1194.5" type="curve" smooth="yes"/>
      <point x="491.5" y="1194.5"/>
      <point x="523" y="1165.5"/>
      <point x="523" y="1117" type="curve" smooth="yes"/>
      <point x="523" y="1066"/>
      <point x="495" y="1035.5"/>
      <point x="452" y="1035.5" type="curve" smooth="yes"/>
      <point x="409.5" y="1035.5"/>
      <point x="381" y="1067"/>
    </contour>
    <contour>
      <point x="649.5" y="1117" type="curve" smooth="yes"/>
      <point x="649.5" y="1165.5"/>
      <point x="679.5" y="1194.5"/>
      <point x="719" y="1194.5" type="curve" smooth="yes"/>
      <point x="759.5" y="1194.5"/>
      <point x="791.5" y="1165.5"/>
      <point x="791.5" y="1117" type="curve" smooth="yes"/>
      <point x="791.5" y="1066"/>
      <point x="762.5" y="1035.5"/>
      <point x="719.5" y="1035.5" type="curve" smooth="yes"/>
      <point x="677" y="1035.5"/>
      <point x="649.5" y="1067"/>
    </contour>
  </outline>
</glyph>
<glyph name="circumflex" format="1">
  <advance width="571"/>
  <unicode hex="02C6"/>
  <outline>
    <contour>
      <point x="84.5" y="1387.5" type="line"/>
      <point x="252" y="1567.5" type="line"/>
      <point x="306.5" y="1581.5" type="line"/>
      <point x="485" y="1395.5" type="line"/>
      <point x="444.5" y="1358.5" type="line"/>
      <point x="272.5" y="1481" type="line"/>
      <point x="262.5" y="1481" type="line"/>
      <point x="114.5" y="1357.5" type="line"/>
    </contour>
  </outline>
</glyph>
<glyph name="dotaccent" format="1">
  <advance width="355"/>
  <unicode hex="02D9"/>
  <outline>
    <contour>
      <point x="86" y="1479" type="curve" smooth="yes"/>
      <point x="86" y="1542.5"/>
      <point x="124.5" y="1584.5"/>
      <point x="177" y="1584.5" type="curve" smooth="yes"/>
      <point x="231.5" y="1584.5"/>
      <point x="270" y="1542.5"/>
      <point x="270" y="1478.5" type="curve" smooth="yes"/>
      <point x="270" y="1412"/>
      <point x="233" y="1365.5"/>
      <point x="177" y="1365.5" type="curve" smooth="yes"/>
      <point x="121" y="1365.5"/>
      <point x="86" y="1413.5"/>
    </contour>
  </outline>
</glyph>
<glyph name="ring" format="1">
  <advance width="488"/>
  <unicode hex="02DA"/>
  <outline>
    <contour>
      <point x="84.5" y="1528" type="curve" smooth="yes"/>
      <point x="84.5" y="1620"/>
      <point x="158.5" y="1699.5"/>
      <point x="252" y="1699.5" type="curve" smooth="yes"/>
      <point x="348.5" y="1699.5"/>
      <point x="409" y="1630.5"/>
      <point x="409" y="1537" type="curve" smooth="yes"/>
      <point x="409" y="1446.5"/>
      <point x="341.5" y="1362"/>
      <point x="239.5" y="1362" type="curve" smooth="yes"/>
      <point x="147.5" y="1362"/>
      <point x="84.5" y="1426"/>
    </contour>
    <contour>
      <point x="152.5" y="1539" type="curve" smooth="yes"/>
      <point x="152.5" y="1476.5"/>
      <point x="184" y="1407"/>
      <point x="250.5" y="1407" type="curve" smooth="yes"/>
      <point x="307" y="1407"/>
      <point x="340.5" y="1449"/>
      <point x="340.5" y="1523.5" type="curve" smooth="yes"/>
      <point x="340.5" y="1587.5"/>
      <point x="304.5" y="1655"/>
      <point x="240.5" y="1655" type="curve" smooth="yes"/>
      <point x="179" y="1655"/>
      <point x="152.5" y="1597"/>
    </contour>
  </outline>
</glyph>
<glyph name="tilde" format="1">
  <advance width="638"/>
  <unicode hex="02DC"/>
  <outline>
    <contour>
      <point x="84.5" y="1379" type="line"/>
      <point x="100.5" y="1459.5"/>
      <point x="167.889" y="1542.29"/>
      <point x="252" y="1516.1" type="curve" smooth="yes"/>
      <point x="401.5" y="1481.19" type="line" smooth="yes"/>
      <point x="448.073" y="1460.63"/>
      <point x="491" y="1471"/>
      <point x="512.5" y="1531.5" type="curve"/>
      <point x="553" y="1526.5" type="line"/>
      <point x="538.5" y="1454.5"/>
      <point x="475.436" y="1357.29"/>
      <point x="381" y="1389.11" type="curve" smooth="yes"/>
      <point x="232.5" y="1424.95" type="line" smooth="yes"/>
      <point x="185.722" y="1445.02"/>
      <point x="142.5" y="1433.5"/>
      <point x="119.5" y="1370.5" type="curve"/>
    </contour>
  </outline>
</glyph>
<glyph name="tilde" format="1">
  <advance width="638"/>
  <unicode hex="02DC"/>
  <outline>
    <contour>
      <point x="84.5" y="1379" type="line"/>
      <point x="100.5" y="1459.5"/>
      <point x="168" y="1542"/>
      <point x="252" y="1516" type="curve" smooth="yes"/>
      <point x="401.5" y="1481" type="line" smooth="yes"/>
      <point x="448" y="1460.5"/>
      <point x="491" y="1471"/>
      <point x="512.5" y="1531.5" type="curve"/>
      <point x="553" y="1526.5" type="line"/>
      <point x="538.5" y="1454.5"/>
      <point x="475.5" y="1357"/>
      <point x="381" y="1389" type="curve" smooth="yes"/>
      <point x="232.5" y="1425" type="line" smooth="yes"/>
      <point x="185.5" y="1445"/>
      <point x="142.5" y="1433.5"/>
      <point x="119.5" y="1370.5" type="curve"/>
    </contour>
  </outline>
</glyph>
<glyph name="Germandbls" format="1">
  <advance width="1263"/>
  <unicode hex="1E9E"/>
  <outline>
    <contour>
      <point x="38" y="0" type="line"/>
      <point x="44.5" y="57.5" type="line"/>
      <point x="211.5" y="95.5" type="line"/>
      <point x="211.5" y="757" type="line" smooth="yes"/>
      <point x="211.5" y="1110.5"/>
      <point x="393.5" y="1260.5"/>
      <point x="691" y="1260.5" type="curve" smooth="yes"/>
      <point x="878.5" y="1260.5"/>
      <point x="1149.5" y="1197.5"/>
      <point x="1149.5" y="1047" type="curve" smooth="yes"/>
      <point x="1149.5" y="982"/>
      <point x="1114.5" y="953.5"/>
      <point x="1048" y="931.5" type="curve"/>
      <point x="1019.5" y="1037.5"/>
      <point x="961.5" y="1153"/>
      <point x="836.5" y="1153" type="curve" smooth="yes"/>
      <point x="752" y="1153"/>
      <point x="647.5" y="1073"/>
      <point x="647.5" y="946" type="curve" smooth="yes"/>
      <point x="647.5" y="644.5"/>
      <point x="1210.5" y="647"/>
      <point x="1210.5" y="312" type="curve" smooth="yes"/>
      <point x="1210.5" y="104.5"/>
      <point x="1042" y="-25"/>
      <point x="806" y="-25" type="curve" smooth="yes"/>
      <point x="663" y="-25"/>
      <point x="535.5" y="33.5"/>
      <point x="476" y="118.5" type="curve"/>
      <point x="497" y="388.5" type="line"/>
      <point x="569" y="377" type="line"/>
      <point x="599.5" y="179" type="line"/>
      <point x="640" y="107"/>
      <point x="741.5" y="56.5"/>
      <point x="844" y="56.5" type="curve" smooth="yes"/>
      <point x="958" y="56.5"/>
      <point x="1065" y="111.5"/>
      <point x="1065" y="256" type="curve" smooth="yes"/>
      <point x="1065" y="524"/>
      <point x="513.5" y="528"/>
      <point x="513.5" y="873.5" type="curve" smooth="yes"/>
      <point x="513.5" y="1013"/>
      <point x="598" y="1151.5"/>
      <point x="739" y="1184" type="curve"/>
      <point x="740.5" y="1188" type="line"/>
      <point x="721" y="1190.5"/>
      <point x="672.5" y="1191"/>
      <point x="653" y="1191" type="curve" smooth="yes"/>
      <point x="455.5" y="1191"/>
      <point x="357.5" y="1035"/>
      <point x="357.5" y="780" type="curve" smooth="yes"/>
      <point x="358.5" y="0" type="line"/>
    </contour>
  </outline>
</glyph>
<glyph name="emdash" format="1">
  <advance width="1261"/>
  <unicode hex="2014"/>
  <outline>
    <contour>
      <point x="64" y="420" type="line"/>
      <point x="78" y="503" type="line"/>
      <point x="1198" y="509" type="line"/>
      <point x="1184" y="426" type="line"/>
    </contour>
  </outline>
</glyph>
<glyph name="dagger" format="1">
  <advance width="784"/>
  <unicode hex="2020"/>
  <outline>
    <contour>
      <point x="40" y="723" type="line"/>
      <point x="48.5" y="818.5" type="line"/>
      <point x="345.5" y="811" type="line"/>
      <point x="336.5" y="1255.5" type="line"/>
      <point x="450" y="1244" type="line"/>
      <point x="440" y="811" type="line"/>
      <point x="746" y="818.5" type="line"/>
      <point x="738.5" y="717.5" type="line"/>
      <point x="440" y="728" type="line"/>
      <point x="456" y="-363" type="line"/>
      <point x="330.5" y="-351" type="line"/>
      <point x="345.5" y="730" type="line"/>
    </contour>
  </outline>
</glyph>
<glyph name="daggerdbl" format="1">
  <advance width="804"/>
  <unicode hex="2021"/>
  <outline>
    <contour>
      <point x="48.5" y="723" type="line"/>
      <point x="56.5" y="818" type="line"/>
      <point x="352" y="810.5" type="line"/>
      <point x="343.5" y="1255.5" type="line"/>
      <point x="457" y="1244" type="line"/>
      <point x="446.5" y="810.5" type="line"/>
      <point x="751" y="818" type="line"/>
      <point x="744" y="717" type="line"/>
      <point x="446.5" y="727.5" type="line"/>
      <point x="438" y="429" type="line"/>
      <point x="443.5" y="164" type="line"/>
      <point x="755.5" y="171.5" type="line"/>
      <point x="749.5" y="75.5" type="line"/>
      <point x="443.5" y="85" type="line"/>
      <point x="451" y="-363" type="line"/>
      <point x="338.5" y="-352.5" type="line"/>
      <point x="348.5" y="85" type="line"/>
      <point x="61.5" y="75.5" type="line"/>
      <point x="68" y="178" type="line"/>
      <point x="348.5" y="166" type="line"/>
      <point x="355" y="498" type="line"/>
      <point x="352" y="729" type="line"/>
    </contour>
  </outline>
</glyph>
<glyph name="guilsinglleft" format="1">
  <advance width="405"/>
  <unicode hex="2039"/>
  <outline>
    <contour>
      <point x="49" y="469" type="line"/>
      <point x="317" y="821" type="line"/>
      <point x="353" y="774" type="line"/>
      <point x="177" y="461" type="line"/>
      <point x="354" y="128" type="line"/>
      <point x="312" y="77" type="line"/>
      <point x="51" y="449" type="line"/>
    </contour>
  </outline>
</glyph>
<glyph name="Germandbls.alt" format="1">
  <advance width="1257"/>
  <outline>
    <contour>
      <point x="34.5" y="0" type="line"/>
      <point x="41" y="57.5" type="line"/>
      <point x="208.5" y="95.5" type="line"/>
      <point x="208.5" y="720.5" type="line" smooth="yes"/>
      <point x="208.5" y="1117"/>
      <point x="390" y="1260.5"/>
      <point x="687.5" y="1260.5" type="curve" smooth="yes"/>
      <point x="852" y="1260.5"/>
      <point x="1049" y="1242.5"/>
      <point x="1108" y="1223" type="curve"/>
      <point x="1108.5" y="1172" type="line"/>
      <point x="785" y="743.5" type="line"/>
      <point x="897.5" y="670"/>
      <point x="1207.5" y="561.5"/>
      <point x="1207.5" y="320" type="curve" smooth="yes"/>
      <point x="1207.5" y="112.5"/>
      <point x="1038.5" y="-25"/>
      <point x="802.5" y="-25" type="curve" smooth="yes"/>
      <point x="659.5" y="-25"/>
      <point x="532" y="37.5"/>
      <point x="472.5" y="122.5" type="curve"/>
      <point x="493.5" y="396.5" type="line"/>
      <point x="568.5" y="385" type="line"/>
      <point x="601" y="183" type="line"/>
      <point x="641.5" y="111"/>
      <point x="738" y="56.5"/>
      <point x="840.5" y="56.5" type="curve" smooth="yes"/>
      <point x="954.5" y="56.5"/>
      <point x="1061.5" y="119.5"/>
      <point x="1061.5" y="264" type="curve" smooth="yes"/>
      <point x="1061.5" y="445.5"/>
      <point x="779.5" y="560.5"/>
      <point x="618" y="659.5" type="curve"/>
      <point x="596" y="704" type="line"/>
      <point x="925.5" y="1148" type="line"/>
      <point x="925.5" y="1152" type="line"/>
      <point x="867" y="1175.5"/>
      <point x="705.5" y="1191"/>
      <point x="649.5" y="1191" type="curve" smooth="yes"/>
      <point x="452" y="1191"/>
      <point x="354" y="1048"/>
      <point x="354" y="743" type="curve"/>
      <point x="355" y="0" type="line"/>
    </contour>
  </outline>
</glyph>
